<mxfile modified="2022-01-08T15:56:26.576Z" host="app.diagrams.net" agent="5.0 (Macintosh; Intel Mac OS X 10_15_7) AppleWebKit/537.36 (KHTML, like Gecko) Chrome/96.0.4664.110 Safari/537.36" etag="2qy6wg6Pow95_Xpx1fzu" version="16.2.4" type="github">
  <diagram id="Ht1M8jgEwFfnCIfOTk4-" name="Page-1">
    <mxGraphModel dx="1567" dy="1131" grid="1" gridSize="10" guides="1" tooltips="1" connect="1" arrows="1" fold="1" page="1" pageScale="1" pageWidth="1169" pageHeight="827" math="0" shadow="0">
      <root>
        <mxCell id="0" />
        <mxCell id="1" parent="0" />
        <mxCell id="HrEDQ9N7DH2wASdigxI--2" value="AWS Cloud" style="points=[[0,0],[0.25,0],[0.5,0],[0.75,0],[1,0],[1,0.25],[1,0.5],[1,0.75],[1,1],[0.75,1],[0.5,1],[0.25,1],[0,1],[0,0.75],[0,0.5],[0,0.25]];outlineConnect=0;gradientColor=none;html=1;whiteSpace=wrap;fontSize=12;fontStyle=0;container=1;pointerEvents=0;collapsible=0;recursiveResize=0;shape=mxgraph.aws4.group;grIcon=mxgraph.aws4.group_aws_cloud_alt;strokeColor=#232F3E;fillColor=none;verticalAlign=top;align=left;spacingLeft=30;fontColor=#232F3E;dashed=0;labelBackgroundColor=#ffffff;" vertex="1" parent="1">
          <mxGeometry x="130" y="220" width="790" height="440" as="geometry" />
        </mxCell>
        <mxCell id="HrEDQ9N7DH2wASdigxI--12" value="Amazon Route 53" style="sketch=0;outlineConnect=0;fontColor=#232F3E;gradientColor=none;strokeColor=#ffffff;fillColor=#232F3E;dashed=0;verticalLabelPosition=middle;verticalAlign=bottom;align=center;html=1;whiteSpace=wrap;fontSize=10;fontStyle=1;spacing=3;shape=mxgraph.aws4.productIcon;prIcon=mxgraph.aws4.route_53;labelBackgroundColor=#ffffff;" vertex="1" parent="HrEDQ9N7DH2wASdigxI--2">
          <mxGeometry x="345" y="-50" width="100" height="120" as="geometry" />
        </mxCell>
        <mxCell id="HrEDQ9N7DH2wASdigxI--13" value="EC2 instance contents" style="points=[[0,0],[0.25,0],[0.5,0],[0.75,0],[1,0],[1,0.25],[1,0.5],[1,0.75],[1,1],[0.75,1],[0.5,1],[0.25,1],[0,1],[0,0.75],[0,0.5],[0,0.25]];outlineConnect=0;gradientColor=none;html=1;whiteSpace=wrap;fontSize=12;fontStyle=0;container=1;pointerEvents=0;collapsible=0;recursiveResize=0;shape=mxgraph.aws4.group;grIcon=mxgraph.aws4.group_ec2_instance_contents;strokeColor=#D86613;fillColor=none;verticalAlign=top;align=left;spacingLeft=30;fontColor=#D86613;dashed=0;labelBackgroundColor=#ffffff;" vertex="1" parent="HrEDQ9N7DH2wASdigxI--2">
          <mxGeometry x="100" y="110" width="590" height="280" as="geometry" />
        </mxCell>
        <mxCell id="HrEDQ9N7DH2wASdigxI--19" value="" style="shape=image;verticalLabelPosition=bottom;labelBackgroundColor=default;verticalAlign=top;aspect=fixed;imageAspect=0;image=data:image/png,iVBORw0KGgoAAAANSUhEUgAACgAAAAIWCAYAAACbNNQ5AAAABGdBTUEAALGPC/xhBQAAACBjSFJNAAB6JgAAgIQAAPoAAACA6AAAdTAAAOpgAAA6mAAAF3CculE8AAAABmJLR0QA/wD/AP+gvaeTAAAAB3RJTUUH4QcIBjg3zffzPgAAgABJREFUeNrs3WecXHXBt/Hr7G46kAQEklBVEBRBERsqSFdALAgRCwiB3dkkCKj0uvQeMJDszm5ClKqLgoJK77b7sVdELIgIWCAgUlJ2zvNiEkIkZcvMf845/+v7+fDi9s5udn+z2Tkzc805CbG5kjEsYiwLGPny/zaClxjGsxzE80iSFEqZ0cBY+hj18v+WsIAKzzKd/zqQJEmSpEw8bmlmEiljqbAWCc2v+P8uIuVpWniKNfk3k1noYJIkSZIkSVJYSeG+ozKjSdiKlLcAbyJlUxI2BjYE1gFaVvHRi4GngMdIeZSER4DfUeFXjOG3BoKSpAGZx0gWsxV9bEPCVsCmwMbARkvuk4at4qP7ltwn/Z2ER6nwCAm/I+XXDOM3HMpzDiwVRBfnkLCOQ0iKTEoLx3hMI2Xq8cs4FrANCVsD2wBvAbYExvbzM1SAvwN/WfLY5Rck/Ixx/IzJ9DmwGq6DFtZjzZf/7xEs9n5IktQQvTTzb9Z6+f9eTB9H8B+HUWbNZU0qjCVlLMkrTrJTfXT/HAnP0sKzHMJLjiVJqrtZrEETY0kYS/MrTrQT+f1S/gPAy1mHFnYmYQfg/cDWQFMd/qYK8GsS7qfC/SzmHg7nKf9lSZJeNo9xLGQnYMcl/70Vljs7Rq2kwO9IuY8mHqCPu5nKP70BpBzq4iMkfNMhJEUp5XjaOd8hpAbppZlneSsV9gE+BLyN+jxX+DzwQ1LupJk7aeWnjq+6KDMR2JqEbUjZBF7+7zVUQ9YxK/ioCvAM8DQpTyx5Q/ijJDwE/Jpx/M4zW0qSBqyT9WhmG1K2pvqm8E2pvjF83SX3SWus8BHS0vskeIKUvwKP0sQfSPkVw/mdcZXqfCw1lqYlP7cp2wCvXfJzuwn8T1yxck8tOZZ6lJSHSPgVCb+mwoOUWOTIkqR+m8ua9LE1FbYhWe5+aVNgdD8/y9PAo0v+e4iEXxf5sX4+A8BONiVhXxI+DLyP+sQVq9MHfA+4mQrfYCqP+C9QkiLUw4b08bEl90nvZ9Vn9auXCvAjUm4CbqCdh71hpBzopZn5/BLYyjEkRerfLOa1TOe/TiEFUmYYKfuQMBnYAxjfgK/iEeCrJMyjjT94o2hQOmhiA7al8vKbwt8DrFeHv2kR8GvgfhLuZyH3+6ZwSdJyUhLKbAPsSBM7kvJeYGId/qbFwO9IuI+UB6hwn28K15BUT2iwO8tOaPBm6nOSHYAXSPkRCfeTcg9r833PEi5JWs5M1mIku1Lh/STsSPXqFPVqwV4E/h8p95FwL/C9IoTq+QkAZ7EGw9iPlIOXHIRk6WtPgQdI+TLD+LqXjpCkgpvBKEbzcZo4iJRd6/igeLB+AFzJcL7GITzjDSZlVDdTSJnrEJIi9wVKXOIMUp3NZRKLOJCEaVTfLZ0VPwW6aeE6n0/Tas1kBMPZY8kb8D4ETGjAV9EHfJ+Em0m5kRJ/8oaRpAhV31SxK018hJR9gA0a8FVUgP8DbgK+SYnfe8OoHz+7E4H9gQ9Tfb19WIO+kqeB75DwLV7i2xzBAm8cSYpQ9azJ+5HyEWAnYHiDvpJnSLiFCt/iBW7iC7yYxzmzHwDOZRKLaQM+B6ydg02fA64j4WLfxSxJBTOLCbTQDkynegmhrHsJuJ4mzqWVB70BpQyZx0gW8hDZegFekhrhSZ7ndXl9UkXKvE52oomjgT3J3huXXuk5UsqkXOiZbPQqPWxHhYOAT1K9dGKW/JSEq0i5hhL/9saSpILrZivgwCUnK1k/Y1/d70i5kpR5Hk9pOdU3UXx0yQkNPkBjrqy3KvNJ+BopX6bE/3mDSVLBLbs6xcHAB2lcjL4yzwLXA1+hxPfyNG12A8DZbEEzpwKfyOCBSH/0kdBLyhm+60aScq6H11LhFOAzGTwI6Y8KKd8i4TRK/NobVMrEA5xjgAscQpIA+BwlLncGqYY6eScJp5DwoZx95c8Dc4HzKPGEN2TEehnOfD4CfBF4Vw6+4gVALwnn08ZvvQElqUA6aGICe5NwPNVLzmfdQuBrNHERrfzKGzBiV7AuC5lCwuHAhjn5qn9GypdIuK4Il2KUJL1C9RK/h5DyBfJzcoxfAJ0M50oO4aWsf7HZCwDnsAl9nE41smguwI9xHwnX0MdpTOUR/1VLUo5Uz0J7KjCFfIZ//6sCXE/CqZ6lVmqgeYxjIX8E1nEMSQLgMRawmZf8kWqgzNYknEnKh8nDlT9W7nlgNnA2JZ71ho3qZ3g0CdNI+SKNucTvUKWkfIdmOmjlp96gkpRj1bOmtZFwLPmJp5aXcAfQQRs/8AaNSPVKRicAbcDInH4XjwJnA/MMASUp94/zXwMcC0wDxuT0u3gcOJcF9GT5OezsPBHYy3CeYSopZwFrFPDH+kUSZrKIs5jOf/1XLkmZPhAZtuQFhzOAtQr4HS4COlnAKRzBf7zBpeC/Y84FjncISVpOiRLdziAN+vhiNAmnknI0xXhD7VJPknIc7VzpjVxw1TP+tQMnkM/w73+lpHyTlFOZym+8gSUpRzpoYSJTgJOBjQryXd0CnEyJn3kDF1j1TccnAtOB0QX5rv5MymmUuIaE1BtZknJkLmvSx7GkHAmsWZDv6lFSzuBJ5tFBJWtfXDYCwDJ7AF3AayP4MX+EhHbauM1/8ZKUQT3sQIUeYIsIvtu/A4dT4pve8FKwBzyTWMzDFOdJOEmqlUcZz+ZMZqFTSAPUzftJ6QE2L+z3mPBd+pju1TUKqotdSfgSsFUBv7sKcA3wBUr82xtbknJxXDUT2KaA310KXE2Fo5nKP72xC3XLJpQ5kIQLgPUL+l3+hCY+Rys/8gaXpFw8zt+HhMvJz6V+B+rnVPgcU/l+lr6oxgaAZUYD5wKfI9+XJRmMq2hhOofynP/6JSkD5jGSRXQU8IwZ/XE9i5jK4TzlD4JU9wc93SS0OoQkrUDKFNqZ5xBSP81hbfqYAXw2ku/4eeBE2rjMs38URPXNMbOAj0bw3f6LhC/SxlXe8JKUQVewLov5EimfjOC7nQ+cQBvdHlMVQBdvAuaS8O4IvtsK0Mlijvdqe5KUUXPYjD7mAjtG8N2mJFxByhcp8WwWvqDGRXddvJ2EXuI469/KPELCZNr4sb8JJKmBOnkzTVwPbBnxCo+T8knaud8fCKlOunkDKb8FWhxDklboTzzBlnSw2Cmk1SjzNuDrxPm82k30cTDTmO8PQq5/hvcHOoF1IvvOb6FCK1P5uz8EkpSZ+6S9gR5gYmTf+Z3AoZR41B+CHOqgiYkcBlxCfFcaeQSYQol7/EGQpIxISeimFbgYWCOy7/4JEtpo49uN/kIaEwB2cRAJXcAo/yWwmJSTaed8p5CkhtwnfWbJfdIYx6APOIsnOIMOKs4h1ViZbwD7OoQkrULCZ2jjGoeQVvkYxufV4K9UmMxU/p8/ELk7Jh4LzAU+HvEKT5FyCO3c7A+EJDXQlYzhRTqBAyNe4T8klGjjq/5A5Ej1LMrXEcfZlVamApzHeE5lMn3+UEhSA13BuiziamCPiFdIgUuB4yixqFFfRNgAsJfhzKebeC5NMpBb4krG0cpkFjqGJAW5T2pmPpcChzvGq9wAHEiJF5xCqpFO3kkTP6KRZ+CWpHx4kCd4s29GkFZgHiNZyCxgimMA8BJwJCW6nSInunkrKdcDmzkGKXAZcHQjXxyQpGjNZguauR7Y2jGW3Esv4AiOYIFTZP6Wej8p1xHfGStX5n7gAEo84RSS1JD7pXeQ0gts6hgA/IQK+zOVRxrxlzcFPJgez3xuxfhvxVIOYj73cAXrOoYk1dks1mA+N2L8tzL7knAPs5jgFFKNJJyL8Z8k9ccbmRj1WaGkFbucdVjEfRj/vdJIoEyZc0k9zsq8bj5Nyg8x/lv2CAGOAG5jDms7hyQF1MVHaOYnGP+9UhsjuI8e1neKDCtzBCl3Yfz3SjsCP6GTbZ1CkoLfLx1Gyvcx/nult9PE/9HF9o34y8M8OdbJBjRxB/BGb+/V+j2L2YPp/M0pJKkOqqchvhV4m2Os1iPAbpT4k1NIQ9DFXiR8xyEkqd9+yxNs41kApSVmMYEWbscXqVcu4Uoe51A6WOwYGdTNkaRcgm+IWZk/krA3bfzBKSQpyH3SDEKeICVf/k7Ch2jjF06RIdWrGc2g+uYBrdjzJHyKNm5yCkmqs5SEbk4DTnOMlVoATKHEtSH/0vo/6VJmY+AufHfnQPyVZnbjMP7oFJJUQz2sT4U78IWzgXiShN1o47dOIQ1CB01M5Cfgu1AlaYA+RolvOoOi18mmS95U6/Nqq3cTz3MAX+BFp8iI6ovV3Xjmyv74F03sSSs/dQpJqoOUhDKXkHCkY6zWMzTxYVp5wCkycTw1nPlcB+zrGKvVR0qJduY6hSTVSQctTODLJHzaMfpxBJpyJO1cFuovrO87XDrZFLgfn6QcqE3o417muJsk1UyZiVS4D+O/gZpAyp30eBZfaZD/gj6F8Z8kDcapXtJT0etmK5r4Pj6v1l8fZg2+S5nRTpEB1fhvHsZ//bUuFe5q1GWCJKnQqmepucz4r9/GUeFWutjdKRpsHiOZzw0Y//VXMwk9dDPNKSSpDsoMYxLXGf/1W0LCTMocE+4vrJfqJRYfALbwdh20J2liF1p50CkkaUgHJGOBezDCGYq/U+F9TOURp5D6qfoO3d8Br3cMSRqElL1p57sOoSj18Foq/ACY4BgDdifj2ZvJLHSKBumghYl8Ffi4YwzYc8BelPieU0hSDfTSzDNcQcpBjjFgL5LwMdq4zSkaYCYjGMFNwB6OMYhnE+AYSlzsFJJUw/ul4XydhA85xiAknEgb59b7r6nPGQDnsiaLuAXjv6GaQIW7PeuSJA3BDEaRcjPGf0O1AU3cQQ/rO4XUT88wFeM/SRq8hFMdQVG6nHWocAvGf4O1G/OZR0edr3yiFUtJmEgZ47/BWhP4Dp0+hyFJQ7b0bLTGf4M1ipQbKfM+p2jAz+4IrsL4b/DPJsBFlDnJKSSpJvdLwxnB9cZ/Q5ByDmWOqPdfU/snwjpoYjHXAdt5K9aEEaAkDf7ONGEMV5Cwg2PUxGZUuIGZjHAKaTVmsQYpJziEJA3Ju7zslKIzg1EM4yZ8U+1QfYqJzHSGBihzAV72d6jWoonb6OYNTiFJg7TsUvQHOsaQjAK+TRdvcYqA5jMb2N8hhuwsyhzrDJI0BNXL0X8T2McxhmwGXexXz7+g9gHgRM4F9va2qykjQEkajG5OBA5wiJp6D8PpcgZpNVo4FjxjpiQNWUKHIygaHbQwml7gPY5RE9Pp5mhnCKjM4SRuXiPrknIz8xjnFJI0QNX470qM/2plLAk3e2WYQLo4DmhziJo5ny5OdgZJGtQx1XAWcD2wp2PURDMJV1HmXfX6C5KafrZuJpPy1Zp/Xi31d1J2pp2HnUKSVnuftCcp3wYv+1Qn7ZQoO4O0Ap2sRxN/pHr5LknSUCXsRBv3OYQieAxzHinHOURNVUj4AG3c6RR1Vr084F3AcMeo6X3gHYxjTybT5xiS1A+e+a+efsACduEIFjhF3Y6n9gC+CzQ7Ro2lnEI7ZzmEJPXTTEYwnK972d+6eIIK72Aqf6/1J65dFDGLjUjpwvivnjYg4X7PBChJq9HJeqRcgfFfPV1KD9s4g7QCCadh/CdJtZNyiiOo8Lr4ICnHOETNNZFyNXOZ5BR1NIdNgBsx/qvHfeDuPMPZDiFJ/eCZ/+rtPYzkUmeok9m8Dvgaxn/1kXAm3ZzgEJLUDzMYxQhuMv6rm4k00UsHLbX+xLUJIzpooYWvAuO9rerOywFL0qqkJDRxBTDBMepqJBWuZQajnEJ6hR5eS8JhDiFJNbXrkjNLSUU9flifhHn4BqZ6WZ/FXFuPJ1YFdNBEhS8Dr3GMOkk5li72cghJWoVq/Pdl4FOOUdf7pHa6+IRD1Px4qoVmrgbGOUZdf37PoewbDCVplWYygjFcD+zhGHX1HiZxWq0/aW2eWJzIscB7vI2CmUCFO+hic6eQpP/RzTRgb4cIYitGc4YzSK9Q4Rw884kk1cOJTqBC6qWZlK/iG5jq7f1M5HRnqIOJnELKTg5RVwkJ8+hhfaeQpJUcT1Xjv884RpB7pa4lZ/9V7Y6nOoDtHSKIM+jmVGeQpBWYwShGcjO+zh5Gyon0sEttD9OGag6b0cevwDMANcCTNLELrTzoFJIElJkI/A7fKRfSYuBdlPiZUyh6XbyFhJ/h2XskqT4S3kkbP3YIFewxzPHAuQ4RRIUK2zOV/+cUNTv+fTsJPwTPrhhEyo20s69DSNIrLLvsr2f+C+su2tidhNQphqiTd9LED/DSv6GPq06hnbMcQpKWmMEoxnATsJtjBPUIo3gzB/F8LT7Z0F+c7KMT479G8XLAkrT8g7ZZGP+F1gKU6fUJCokmLsT4T5Lqeax3siOoUMpsDP5cBz1aa6KHMsOcogY6aCGhjPFfOAkfo8xHHUKSlvCyv420K90c5Aw1OJ5qogvjv0YcV51JufaXXpSkXDL+a6RNebF2V6wY2guUZfb3h6DhjAAlCaCHXUj4mEM0xNt5hinOoKh1shMpuzuEJNXVPvSwnTOoQC4HxjhDUNsARzhDDUziKOBtDhHcbMqMdQZJ0fOyv1lwMZ2s5wxDMJEvANs6RMN0eDlgSdErM5ox3IzdVyMdSbk2z68MPgDsZThwtrdFJhgBSor9YVoTFS50iAZKOYu5rOkQivTnP1ly9j9JUn0lVDjBGVQI1bN47eMQDXEGPbzWGYZgFhNIPWNKg0wETnIGSVFbdtlf47/GWocmznSGQarGk54NvNFSTqeb8xxCUpTKjAZuAnZ1jIZqAS4nJRnqJxp8APgMU4HNvS0yYwIV7qDL20RShCZxEJ55oNHWYzFfdAZFqZtPAm93CEkKYl/KbO0MyrUrGQN8ySEaZjQVZjjDEDRzBrCGQzTMkZR5vTNIipKX/c2aQ+nkzc4wCNV40jfUZ0HKcUaAkqJj/Jc129PDR4d+eDEYMxlBynHeBpmzAQn3eyZASVHppZnUd79nxOeZxzhnUGS/g4YDZziEJAWTkHgWQOXci0wHNnaIhvoonbzTGQahm61ImOIQDeVjEElx8sx/WdRMk+HUgFVfx/V4KktSjqOL0x1CUhSqb0z9NsZ/WbsvOo8OWobyKQYXAI7kUKqXG1D2eDlgSXF5hgOAzRwiE9ZiIdOcQVF5msPBs29IUlApk5nj8Z9yqvoOa8+cnQUJpzjCIFQ4FWh2iIb7JN1s5QySouGZ/7Jsb7rY3hkGdDx1MgztBX7V5fHBqZQ53yEkFVqZ0bzATcDOjpE5b2ASnxzKJxh4ANhBCynHuH2meTlgSXFISUg53iEy5aglL2pKxTeb8SSc6BCSFFwzFaY6g3KqBKznDBmQ8CHPAjhAZV5PwscdIiM/wT5HLykWy+I/z/yX3XulYx2hn2bzOmCyQ2TWsZS5wBkkFfQx/Wjg2yTs4hgZlXICHYM8kR+DCQAn8GFgU5fPvA1IeIAu3uQUkgp8oLIL8GaHyJR1STjAGRSFFk4G1nEISWqAlClLLlch5cdMRuDZ/7LFswAOdK8T8Ox/WfIpOn2eXlLB9dLMM1yF8V/WfcQz0/ZTM8fi2f+y7hjKnO0MkgplFmsAt+CZ/7LujUzkw4P94IEHgAklN8+N9Um42whQUmF5n5RV3i4qvk42JWW6Q0hSw4zjBd90oJwZwRRgA4fI1GPKD9HNWx2iHy5nHVI+7RCZMoxm2p1BUmEtPfNfOrRLoSnQURUc7gyrUWYsxqx5cSJdXOgMkgrhSsbQwk3Ajo6RC4M+phpYAFg9LfFu7p0r65Nwu5cDllQ4PawPfMQhMijlnXSyrUOo0Jo4FxjhEJLUQIkvMCl3fKNMNh+/HOoI/TCcQ4CRDpHBn9+ZPi6RVEBe9jeP90mfYSZrOcQqNzoIPJN9biQcbQQoKfeuZAwv8W0881+e7EI3bxjMBw4sAGzhMzD46w2rYbwcsKQiPlg+ABjuEBnV7JNzKrBu3gF8wiEkqeHeShfbO4NyoczbgLc4RCZ9inmGbat5/J2Q0uYQmfQahrOvM0gqFC/7m1drMJxPOcMqJB5P5fA2O5puznMISbk0lzV5kVtJ2ckxcnbvM8jnYAYW86VMduvc8nLAkorF+6Ts3z4dvmlABVXhPKqXNpEkNZ6XY1defNYJMmttFnh2+VXqYXvw6iKZlXCgI0gqDC/7631SUXXzVuDNDpFDKcdR5iKHkJQrVzKGPm4C3ucYufQpemke6Af1/4X5aji2lTvn2vok3DHY00VKUmb0sCF4tpeM25D1vY1UQN18mIRdHEKSMiJhf3pY3yGUab0MB1/EzrhDnGAVKr4BL+N243LWcQZJBThm8rK/+bc9c9jEGTyeKqAv0s3FziApF65kDC/yHc/8l2sTeZr3DvSD+h8AJnzYjQthEin3eyZASTl/sLwPnn0r+5r4kCOoUHppJuUch5CkTBlOyhRnUKY9w97Aug6RYQm7M5dJDrECHTSRsJ9DZNowhvExZ5CUa8Z/xTmq6vO4YSXL7O8IOZfyBbq40CEkZdpM1uJFbgfe7xi5P3YY8JsH+h8ApuzuwoXh5YAl5f2BlvdJ+bCHE6hQnqYVz4gtSVk8NmwfzCURpID2doLMa6LPxy8rNIntgA0cIvP2cQJJuWX8531S0fXwRmAzhyiAhKMpM8MhJGXSlYxhBDcD73GMQhjwiXb6FwCWGU0y8NMLKtOMACXlUy/NJJ6yOCe2pZP1nEGFMIs1SDjNISQpkzbmac88rAxL2dURcnE7+UazFe9iGJkPO1NmmDNIyh3jvyJ6DzNZyxk8niqwzxsBSsqcmazFC9wJ7OgYhbEJ3bxhIB/Q1M8/9W5ghPsWzvok3DHQHxpJaqhneSsw3iFyIaGZHZxBhdDMMcAEh5CkjGpiuiMok+awGbCpQ+TCbqQkzvAqhpH5sCYp2zuDpFwx/iuqYQz3soPL8Y0mRfR5ylziDJIyocxYhnMbCe92jMIdQwzoTQT9CwAr/qAU2CRS7vdMgJJyw/ukvB2YvNMRVIAHTxNJ+KJDSFKmjzl2YzZbOIQyp8+z/+XIepTZxhleYSYjwMfgudHk1RIk5UgvzTzDVRj/eZ9U/MeqCXiVvYI6ijKX+CYiSQ1VZiwptxr/FfY4YkAn2mnq5597h8sWmpcDlpQn3iflSWIAqEI4AxjjDJKU8aOOJqY6gzLIADBfv0l2c4RXGMW2eFWY/PANeJLyYumZ/1I+6RjeJxXeHLYExjlEYR1FD7ONACU1RJmx4Jn/Cm2Ar7P3NwDc1mULz8sBS8oL75PyJPX2Us718EbgYIeQpBxIOJgrDbaVOds5Qa74hrNXqvjifc54e0nKPi/7G4u30UGLM3g8FYWUdrrpNAKUFNTS+A/e5RiFtik9rN/fP7z6AHAGo4CN3DUKXg5YUrZ10ARs7hC5MpZZTHAG5VbKReATlpKUm+OOF/m0Mygz5jES2MQhcuWtTrDcsbBv6MqXdZnl8/iSMqwa/12N8V8MRrM+WzqDx5cRKdHNpUaAkoKYxzjgDoz/4pD2/1hi9QHgmmxO/88UqPzzcsCSsmtDNgJGOUTONHt2WeVUJzuRspdDSFKuTHMCZcZCNgeaHSJXNlsSbgogYQtHyJlh3maSMmrZmf8OcIxINHuftOR4yufG43EE3XQZAUqqqzJjWcRteAWDeFT6fyyx+rAv5fUuGh0vBywpm7xPyqcmNnME5fD3TUITFzmEJOXOW+jkvc6gjPCsJ/nTzIuetfEVfG7Q20yShs7L/nqfFLPUHSLTZgQoqW7mMY6E20m9vHxUmvp/dcT+BICTXDRKXg5YUvb0eZ+USykTHUG5U+bTwHYOIUk51Mx0R1BGGADmUQuvcwRgNuOBdRwid4+/N3cESZniZX+9T4r95x829YchOm10c5kRoKSaP0ZfyJ3Gf1EeU/X7RDv9ubTv+i4aLS8HLClbEu+TvN2kAOYxkoSzHEKSciplP+b6xhFl4jjYM8nl04ZOALT4ezSnfAOepOzwsr/eJ8XuX6wLtPijEKXplCnT0a8WQ5JWbR7jaOY2PGmFx1Sr0Z87nfXcM2peDlhSlniflEcVA0DlzEKOAF+wl6QcG8YipjiDMuA1TpBDqWe9A3wjl7ebJA2Nl/2VJ5iBZjeI/LislQl0GQFKGpJ5jGMhtwPvcAyPqVanP5cAXsM9o+flgCVlg/dJeX2gO8YRlBvVS50d5xCSlPvjj6mUGeYQavDjl/GOkEtrOwGQ+ga8nN5uhgaSGq+DFi/7KwwAwRMaKKGVSczycsCSBmUOa7OQuzH+i926/b0fWX0AmDDSPYWXA5aUjQdL3iflk7eb8qOZU/FFX0kqgkmk7OMMarDRTpBLo5wASFnLEXJpTSeQ1FC9NDOReXjZX3mfBE2e0EBASjvddHsmQEkDMo9x9HEbsK1jRK+FLzOif4ceq79TGuGeWsIIUFKjHyh5n5RP3m7Khx5eC0x1CEkqiIRpjqAGa3GCXPLsoVW+kcvH35I0MF72V94nuYFW5jAmGQFK6qfZjGchdwBvdwwBsLBWAWDik5Vazvok3MFstnAKScF5n5RXvoCmfOjjPHxiTpKKZFe62coZ1EDNTuDjlxwzAPR2k6T+66WZp/kKxn9aZnj0sZMnNNDyPw+HMoEuLwcsaZUuZx2auRvjP71SU/8e61uZazAm0cx9nglQkiQVRifvJGF/h5Ckwik5gSQNQmLAmlMGrJLC66CF+VxNwqcdQ8tZ2/sl6X+OsVvpZo5nApS0QrMZzzBuA97qGFrOYtL+/DHvXDRYXg5YkiQVR8JF4LsvJalwUg5mJms5hCQN+Penx8aSpNXrpZkJfBk4wDGk/5GwwBG0AlOYSI8RoKTlzGY8zdwBbOcYepWm/h1TeMeioTAClCRJ+VfmoyTs4BCSVEhrMpxPOYMkSZJUY0sv++uZ/6QVS3nJEbQSRoCSlrmCdWnmXoz/tDIL+ndM4Z2KhsoIUJIk5VcHLcDZDiFJBZbwOc9kJUmSJNWQ8Z+0einPOYJWwQhQUjX+W8RdwDaOoZVYxOdY2J8/6B2KasEIUJIk5dMk2sBjGEkquDdR9kyvkiRJUk0Y/0n9k/IPR9BqTGEic4wApUgti/+2dgytwj9ISPvzB70zUa0YAUqSpHyZxRqknOIQkhSBhGmOIEmSJA2R8Z/UfyMMANUvhzCJq+ml2SmkiBj/qf/6fTxhAKhaMgKUJEn50cLxwASHkKQo7EsnGziDJEmSNEjGf9LAPMpT0L9L9ilyKZ9kPnM9E6AUiU7WYxH3YPyn/nmyv3/QOxHVmhGgJEnKvrlMAo5yCEmKxjCaOdQZJEmSpEEw/pMGroMK8BeHUD99lolcQwctTiEVWCfr0cRdwFaOoX56uL9/0ABQ9WAEKEmSsm0xZwJjHEKSIpLSTplhDiFJkiQNgPGfNBR/cAINwAFM5CojQKmglsV/b3YM9VtiAKjGMwKUJEnZVGZr4LMOIUnRmUjKR5xBkiRJ6ifjP2loUh5yBA3QAUzkCnppdgqpQGYxgSbuwfhPA9fvNxMYAKqejAAlSVIWXQA+gSJJUWpiuiNIkiRJ/WD8Jw1dws8dQYNwIPO9HLBUGJ2sRwt3gt2MBixlYf+PJQwAVW9GgJIkKTvK7Ax80CEkKVIpOy05E6wkSZKklTH+k2qjmf/nCBqkTzDBCFDKvR7Wp4m7ga0cQ4PwRw7nqf7+YQNAhWAEKEmSGq+DJuBCh5CkyKW0O4IkSZK0EsZ/Uu0cyp+g/y/cS8tJmMxEvuLlgKWcKjORCvdi/KfB+/FA/rABoEIxApQkSY01gc8A2zmEJEUu4SBmspZDSJIkSf/D+E+q9ePPlJT7HUJD8Cnmc51nApRypof1gTuBLR1DQ3DfQP6wAaBCMgKUJEmNMY+RJJzpEJIkYA1G8hlnkCRJkl7B+E+qj4Q7HEFDtD8TudYIUMqJHtanwt1gF6MhahrYMYQBoEIzApQkSeEt5ChgY4eQJAGQcjgpiUNIkiRJGP9J9dTErY6gGtifSZ4JUMq8WUww/lON/IFW/jKwQw4pPCNASZIUTpnXAMc7hCTpFd5IF+93BkmSJEXP+E+qr+qL979zCA1Zyn5M5GojQCmjOtmAFu7D+E+1kPDtgX6IAaAaxQhQkiSFOkg+FRjrEJKk5TQz3REkSZIUNeM/Kdy/Nqk2PsEkrqPMMKeQMmQWE5ZcrvUNjqGa6ONrA/0QA0A1khGgJEmqr9m8jpSSQ0iSXiXlo/SwoUNIkiQpSsZ/Ujh9fNURVDMp+4ERoJQZPWxICw8Ab3QM1cijtPPjgX6QAaAarRoBdrOVU0iSpJpr5gJguENIklaghT5anUGSJEnRMf6TwprGQ8BPHUI19HESrjUClBqshw2pcA+wmWOohq4iIR3oBxkAKgvWJ+UuI0BJklRTZd4F7OsQkqSVSmij11BckiRJETH+kxr1+LPsCKqp6pkAv2oEKDXILDYy/lMdVKgwZzAfaACorDAClCRJtXYRkDiDJGkVJvA0H3MGSZIkRaGXZuZzpfGf1AAjuRZ41iFUY/tiBCiFN4uNaDH+Ux2kfJepPDKYDzUAVJYYAUqSpNroYl/gfQ4hSVqthGmOIEmSpMJbGv/BpxxDaoCDeB6Y5xCqAyNAKaQyG9PCvcDrHUM118Tlg/9QKVuMACVJ0lAffA0j4VyHkCT10470sI0zSJIkqbCM/6RsaOJiYKFDqA72BW5kJiOcQqqjWWwE3A28zjFUB7+gldsHf5ghZY8RoCRJGooS8AZnkCT1W8pUR5AkSVIhGf9J2dHKY8CVDqE62ZuR3GAEKNVJ9cx/9+CZ/1QvCWeRkA72ww0AlVVGgJIkaeDmsiZwskNIkgYk5TOUGesQkiRJKhTjPyl7+jgXWOAQqouUvRjJ1+hluGNINTSHTcDL/qqufsnj3DiUT2AAqCwzApQkSQOziBOA9R1CkjRAa5BykDNIkiSpMIz/pGyaxp9JmOUQqpuUjzCfb3omQKlGymxMH3cDr3UM1dGxdFAZyicwAFTWGQFKkqT+6WQDEo50CEnSoCRMIyVxCEmSJOWe8Z+UbYs5C3jKIVRHezKCG5nHSKeQhqDMxsA9wOscQ3V0KyVuH+onMQBUHhgBSpKk/hzZng2MdghJ0iBtSZldnEGSJEm5ZvwnZd805pNwqkOozvZkITcYAUqDVI3/7sX4T/W1kJQv1uITGQAqL4wAJUnSyvWwDXCgQ0iShiRhmiNIkiQpt4z/pPx4nC4Svu8QqrM9WeiZAKUBm8MmVOM/L/urejuXdn5Xi09kAKg8MQKUJEkrVuFCj20lSTXwkSVP8EmSJEn5Yvwn5UsHFfpoBxY6hursgyzk68xkhFNI/TCb19HH/Rj/qf5+zwLOrdUn80VS5c36pNxtBChJkl7WzQeAPRxCklQDzVQ4zBkkSZKUK8Z/Uj5N5TfAKQ6hAPZmBN/0TIDSasxhE5q5E9jYMVRni4CDOYIFtfqEBoDKo/WMACVJEgAdNJFyjkNIkmompeS74iVJkpQbxn9Svj3BRcCdDqEAPsgCI0BppeawCX1e9lfBnESJ/6vlJzQAVF4ZAUqSJJjEQcDbHEKSVEPrMpx9nUGSJEmZZ/wn5V8HFVr4LPAPx1DdJXyAhdxgBCj9jzKvp48HgE0dQ3WXchtPcHGtP60BoPLMCFCSpJjNYBQppzuEJKnmmpjuCJIkSco04z+pOA7lcVI+BrW7DKC0CnuykG8xg1FOIQGdbEr1TKwbOYYC+AsJn6GDSq0/sQGg8s4IUJKkWI3h88DGDiFJqrmU91L2DLOSJEnKKOM/qXja+SFQcggFsgdj+KYRoKLXxeY0eeY/BfMcFT5MiX/X45MbAKoIjAAlSYrNFawLHOsQkqS6SWl3BEmSJGWO8Z9UXCW+ApznEArECFBx62JzEu4BNnQMBbCIlMlM5Tf1+gsMAFUURoCSJMV1mHwaMNYhJEl1k/BpZjPeISRJkpQZxn9S8bVxIjDHIRTIHqzh5YAVoWXx3waOoQAqpBxIO7fW8y8xAFSRrEfKnZTZ0ikkSSqwbt4AtDmEJKnORtPCQc4gSZKkTDD+k+KQkDKeduAbjqEgUnY3AlRUunkDCfdi/KdQv2VTptPO1+r9FxkAqmgmAPd5JkBJkgqswnnAMIeQJNVdyuF0+NyJJEmSGqyDFuZzHcZ/Uhwm0wd8kpQbHUNBpOzOGG4yAlThzWYLUu4BJjmGgvx2hSNopyvEX+aT2CoiLwcsSVJR9fBuEj7qEJKkQDZjArs6gyRJkhqml2Ym8hVgf8eQIlJiEWuzPwnXOYYC2Y0x3Mos1nAKFVI3b6CZuzH+UxgpKUdS4vJQf6EBoIrKCFCSpGIeLl8EJA4hSQqmiemOIEmSpIbwsr9S3CbTxzgONAJUQDvSwneMAFU43bzBM/8poKVn/rss5F9qAKgiMwKUJKlIyuxPynsdQpIUVMqH6GRTh5AkSVJQxn+SYFkECNc6hgLZkWa+awSowvCyvwqrGv8FPPPfUgaAKjojQEmSiqDMMOBsh5AkNUAzCW3OIEmSpGB6aeYZrsL4TxJUI8DxHIQRoEJJ2MEIUIUwmy287K8CSoHPNSL+AwNAxcEIUJKk/JsKbO4MkqSGSGhlHiMdQpIkSXW3NP5L+aRjSHrZ0ggw5RrHUBBGgMo74z+FtTT+m9WoL8AAULEwApQkKa/KjAVOcQhJUgO9hgXs5wySJEmqK+M/SasymT7W5rNGgAomYQdauMUIULlTjf+87K9CSUk4vJHxHxgAKi5GgJIk5VHCCcBrHEKS1OD7o2mOIEmSpLox/pPUH0sjQLjaMRTI+2jhFuayplMoF8psuST+m+gYCqAa/7Uxu9FfiAGgYmMEKElSnnSyASmfcwhJUgZsTw/bOYMkSZJqzvhP0kBULwd8MEaACud9LOa7RoDKvDJbAndj/KcwMhP/gQGg4mQEKElSXjRxLjDaISRJmZAy1REkSZJUU8Z/kgbDCFDhvY8+zwSoDDP+U1gpMD0r8R8YACpeRoCSJGVdF28BPu0QkqTMSPkUc1jbISRJklQTxn+ShmJZBHiVYyiIlPcaASqTqvGfl/1VuN+GMJ0SnVn6ogwAFTMjQEmSsqyJCz1elSRlzCgWc7AzSJIkaciM/yTVQjUCPAQjQIViBKis6eGNVOO/CY6hIL8FU6ZlLf4DX1CVqhFgJ292CkmSMqSbPUnZ3SEkSZmTMI0On0+RJEnSEBj/SaqlpRFgwpWOoSBS3stibmUmazmGGqqHN1Lhboz/FOq3X8o02unK4hfnE9YSrEcTdxkBSpKUER00kXKOQ0iSMur1TGAPZ5AkSdKgGP9JqofJ9DGOKUaACug9jOAWI0A1TBdvocL9GP8pjAoJU7Ia/4EBoLSUEaAkSVkxgUOAtzqEJCmzEqY5giRJkgbM+E9SPS2NAOErjqFA3sMIzwSoBujiLSTcCbzGMRRABZhCG1/O8hfZ4u0kvWxpBLgrU/mNc0iS1ABlRgOnO0R0XgAedAYVWBOwrTMUyl50silTecQpJEmS1C/Gf5JCmEwfHUxhIgCfdRAFsP2SCPCDHMF/nEN1Z/ynsKrxXyn7cb0BoLQ8I0BJkhop5QskbOAQ0d3uZ9DO+Q6hQitzL/B+hyiMZpppB453CkmSJK2W8Z+kkDqoGAEqsO0Zwd3MZnemMd85VDfdvJWUOzD+Uxh9wKF5iP/ASwBLK+LlgCVJaoQrWJeEYxwiOo+RcJkzqPBSznSEwt2mhzKPkQ4hSZKkVTL+k9QIHVRo4xCg7BgKZDuauYPZjHcK1UU1/vPMfwqljzQfZ/5bygBQWjEjQEmSQlvE6cBaDhGZhOMp8YJDqPDauQv4nkMUymtYwGRnkCRJ0koZ/0lqpISUNqaS0OUYCqQaAc5hbadQTS2L/9ZxDAVQjf/auTJPX7QBoLRyRoCSJIUymy2AwxwiOr/gca5zBkUj4RxHKJgmpjuCJEmSVsj4T1IWJKS0Ms0IUAFtR58RoGrI+E9h9ZFwSN7iPzAAlFbHCFCSpBBaOB8Y5hCRSTmaDioOoWi0cQvwY4co1O+xd9LNOxxCkiRJyzH+k5QlSyNA6HQMBfI2I0DVRCfbGv8poGr818ZVefziDQCl1TMClCSpnrrYnpQPO0R0bl5ySVQpNp4FsGgqTHMESZIkvcz4T1IWVS8HPJ2U2Y6hQIwANTSdbEsTd2D8pzD6SDk4r/EfGABK/WUEKElSPaQkJFwEJI4R2QOphBOcQVFq41vArxyiQBI+weU+ESlJkiSM/yRl/fFrSonDjQAV0Nvo404jQA1YNf7zzH8KpRr/tXN1nr8JA0Cp/4wAJUmqtTKTgfc4RGQSemjjtw6hSH/+UxLOdohCGcVwDnEGSZKkyBn/ScoDI0CFty193OmbJ9VvZd62JP4zHFUIfSR8Nu/xHxgASgNlBChJUq30MpyEsxwiOv9lEac7g6L2OF8HfuMQBZJyOL00O4QkSVKkjP8k5cnSCBBmOYYC2ZZh3GEEqNUq8zbgDoz/FEY1/mvjmiJ8MwaA0sAZAUqSVAvzmQ5s5hDRuYDpPOkMiloHFRIucIhC2YSn+YAzSJIkRaiXZuZztfGfpFxJSGnjcxgBKpxtGeaZALUKxn8Kqw84qCjxHxgASoNlBChJ0lDMYxxwkkNE53FGMcMZJGAc1wIPO0SBNDHdESRJkiKzNP6DAxxDUu4siwAvdwwF8lYjQK1QD9th/KdwqvFfiWuL9E0ZAEqDZwQoSdJgLeRE8EF+dBJO4SCedwgJmEwfKec7RIGk7EkXmzuEJElSJIz/JBVBNQI8AiNAhWMEqOX1sB0V4z8F00fKgUWL/8AAUBoqI0BJkgb+YG5D4HCHiM6vGMdXnEF6hYQrgUccokC3KLQ5gyRJUgSM/yQV69FsNQJMuMwxFEg1AizzGqeI3LL4b7xjKIBq/NfOdUX85gwApaEzApQkaWCH1+cBoxwiOscwmT5nkF6hxCLgAocokIRDKTPaISRJkgrM+E9SMR/PprRypBGgAnorGAFGrYvtqXA3xn8Ko4+EzxQ1/gMDQKlWjAAlSeqPbt5KwicdIjIpd1PidoeQVmABVwB/d4jCGE/KJ5xBkiSpoIz/JBXZ0ggQZjqGAnkLRoBx6mJ7Em4F1nIMBbCIhP1p46tF/iYNAKXaMQKUJGl1Ui70GDQ6FVKOdgZpJY5gAXCRQxRIwuccQZIkqYCM/yTF8Zg2pY2jMAJUOEaAsenmPcZ/CmgRCZ+gjRuL/o364qtUW0aAkiStTJm9gd0cIjpfZio/dwZpFYbTBTzhEIWxLZ280xkkSZIKxPhPUkyWRoApX3IMBfIW4C4jwAh08x5SbsH4T2EsAibHEP+BAaBUD0aAkiT9r16agfMcIjovspgOZ5BW4xBeAi51iAJpZrojSJIkFYTxn6QYJaSU+LwRoALaBrifWUxwioKqxn+e+U+hLAQmU+KbsXzDBoBSfRgBSpL0Ss8wBbxfjNBFTOdvziD1wyhmAf9yiIJI+QSdrOcQkiRJOWf8JylmCSntHIVv7FY4b6SFu40AC6iT9y6J/9Z0DAWwEPhETPEfGABK9WQEKEkSwAxGkXKqQ0TnnyzgImeQ+ukgnidlpkMUxggSDnEGSZKkHDP+k6SqEidgBKhw3kgL9xgBFkgn76WJWzD+UxgLSeM6899SBoBSfRkBSpI0hmOBDR0iMimncQT/cQhpABYyE3jGIQoiYRq9NDuEJElSDhn/SdLySpxAyrkOoUC2pIV7KDPRKXLO+E9hVeO/dr4V4zdvACjVnxGgJCnmB3frAV90iOg8xJPMcQZpgI7gPyRc7hCFsTFPs5czSJIk5UyZYTzN9Rj/SdLy2jnRCFABbQncbQSY62Oq9xn/KaCFJOwfa/wHBoBSKEaAkqRYjzbP9MFdhFKOoYPFDiEN6vfmJcBzDlEQCdMcQZIkKUfKDCPlayR8zDEkaQXaORE4xyEUiBFgfo+p3gd8F18fUhjV+K+Nm2IewQBQCscIUJIUl9lsAUxxiOjcRzs3O4M0SIfxNNDpEIXxAbp5gzNIkiTlgPGfJPVPiZMwAlQ4W4KXA87ZMdX7wDP/KRjjvyUMAKWwjAAlSfFo5kKgxSGikpJytDNIQ3Yh8F9nKIQEKDmDJElSxhn/SdLAVCPAsx1CgWwB3MNcJjlFxvWwA9X4bw3HUAALSdnP+K/KAFAKzwhQklR8XewI7OMQ0bmGdn7iDNIQlfg3MMchCiJlClcyxiEkSZIyyvhPkganxMkYASqcLVjM3UaAGdbDDlT4LsZ/CqMa/3lFqpcZAEqNYQQoSSqulISE8xwiOi/RzMnOINXMBcCLzlAI43iBA5xBkiQpg4z/JGloSpxMwlkOoUCMALPK+E9hGf+tgAGg1DhGgJKkYipzALC9Q0Qm4Uscxl8dQqqREk8AX3aIwvyOPNwRJEmSMsb4T5Jqo41TjAAV0BYs9nLAmdLFjsZ/CmgBCR83/ns1A0CpsYwAJUnF0stwEs50iOjMp4kLnEGqscWcCyx0iEJ4K13G8ZIkSZlh/CdJtdXGKeDzwgrmDUaAGdHFjiR8B+M/hbGAhP1o49tO8WoGgFLjVSPAMls7hSQp9+bzOeD1DhGdDg7jaWeQamw6fyPhKoco0C0qSZKkxjP+k6T6KHEqRoAKpxoBdrKBUzRINf7zzH8KZQHwceO/lTMAlLJhPTAClCTl3GzGAyc4RHT+zHi6nEGqk8WcAyx2iAJI2J8e1ncISZKkBjL+k6T6KnEqKWc4hAJ5A01GgA3Rxe4k3AqMcQwF8CIp+1DiO06xcgaAUnasixGgJCnPWjgZWMchIpNwLJO9RKlUN9P4M3CdQxTCcFKmOIMkSVKDGP9JUhjtnGYEqIA2NwIMrBr/fQsY5RgK4EUSPkw7dzjFqhkAStliBChJyqdONiX10obRSfkRrdzgEFLdnQNUnKEQvzfb6aXZISRJkgIz/pOksNo5DTjdIRRINQLsYUOnqPsx1R7GfwqoGv+1cadTrJ4BoJQ9RoCSpDweVZ4LjHCIyKQcTULqEFKdlfg9KV93iELYmKf5kDNIkiQFZPwnSY1RogMjQIWzORUeoJNNnaJux1R7gPGfgnnB+G9gDAClbDIClCTlRyfbApMdIjIpvUzl+w4hBXv0fgaeBbAot6VnzJUkSQrF+E+SGqtEBynHO4QC2XTJ5YA3dYoa6+YDVOO/kY6hAF4gNf4bKANAKbuMACVJeTmivNDjyugspIWTnEEKqI3fAjc5RAGk7MZstnAISZKkOjP+k6RsaOd8I0AFtClN3GsEWEPdfICUb2L8pzCq8V87dznFwPhCrZRtRoCSpGzrYh9gV4eIziwO44/OIAVW4QzwstsFkNDEVGeQJEmqI+M/ScoWI0CFtQlN3EsPr3WKIerig8Z/CugFmtjH+G9wDACl7DMClCRlUy/NJJzrENF5hkWc7QxSA0zl58CtDlEACQdzJWMcQpIkqQ6M/yQpm9o5HzjOIRTIJlS4xwhwCLr4IAk3YvynMKrxXyt3O8XgGABK+WAEKEnKnvkcBmzlEJFJOJvDecohpIY9ij/DEQphLC/yaWeQJEmqMeM/Scq2EhdgBKhwjAAHy/hPYRn/1YABoJQfRoCSpOyYxRrAaQ4RnUd4icucQWqgVn4EXgKhIKY5gSRJUg0Z/0lSPlQjwGMdQoFsQsXLAQ9IN3sa/ymgF4APGf8NnQGglC9GgJKkbGjmGGCiQ0Qm5USOYIFDSA2WcKYjFMJb6OS9ziBJklQDxn+SlC8lLsQIUOFsTIV7mc3rnGI1utmTlBsw/lMY1fivxD1OMXQGgFL+GAFKkhqrh/VJ+LxDROfHlPiqM0gZ0MZ9pDzgEAXQzHRHkCRJGqIyw4Be4z9JypkSF5JwjEMokI1p5h4jwFWoxn+e+U+hPI/xX00ZAEr5ZAQoSWqcCmcBazpEdI8cjichdQgpIxLOcoQCSNmPuUxyCEmSpEFaGv/BRx1DknKojYuMABWQEeDKdLHXkvhvhGMogOepGP/VmgGglF9GgJKk8Hp4I3CwQ0Qm4Vu0crdDSBlS4nbgBw6Re8NYxBRnkCRJGgTjP0kqhjYuAo52CAVSjQDLvN4pluhiLxJuwPhPYVTjv6nc6xS1ZQAo5ZsRoCQprJSLgBaHiMpiKpzoDFIGJZzrCIW4HacuefFakiRJ/WX8J0nFUuJiUr7oEApkYzACXHJMtbfxnwJ6noS9jf/qwwBQyj8jQElSGJ3sRMpeDhHhUwDt/M4ZpAxq49vATxwi9yaRso8zSJIk9ftRqvGfJBVROzOMABXQRsQeAZbZG/gGxn8Koxr/tXGfU9SHAaBUDEaAkqT6Sklo4iKHiM5zNHGmM0iZ/v3sWQCLIGGaI0iSJPWD8Z8kFVs7M4AvOIQCiTcCNP5TWM+TspfxX30ZAErFYQQoSaqfHj4FbOcQ0TmPVv7hDFKGlbgR+LVD5N6udLOVM0iSJK2C8Z8kxaHEJRgBKpxqBDiHzaL5jrvYF7gR4z+F8R+a2I127neK+jIAlIrFCFCSVHu9DCflDIeIzt+BS51ByriE1LMAFkbJCSRJklbC+E+SYnuEfAnweYdQIBvRF0kE2M3HSfgqMMybXQE8SxMfoJUfOUX9GQBKxWMEKEmqrfkcCbzOIaJzEiVecAYpB9amF3jIIXIu5WBmspZDSJIk/Q/jP0mKU4lLqUaAqWMogA0LHwF283FSrsP4T2E8SxMfNP4LxwBQKiYjQElSbcxmPHC8Q0TnlzzBVc4g5cRk+sCzABbAmgznU84gSZL0CsZ/khS3EpeSMg0jQIWxIX08QA9vLNx31sV+xn8K6FnwzH+hGQBKxWUEKEkaumZOBdZ2iMikHEMHFYeQcmQ8VwMPO0TOJXyOlMQhJEmSMP6TJFW10wVMxQhQYUygwt2FigC72I+EazH+UxjV+K/E/zlFWAaAUrEZAUqSBq+H11J9YkVxuYV27nAGKWeqZwG8yCFy702U2cEZJElS9Iz/JEmvVKKMEaDCqUaAXbwp999JNf7zzH8KxfivgQwApeIzApQkDU4f5wEjHCKyWx2OcwYpt+YBf3WGnEuY5giSJClqxn+SpBWpRoDtGAEqjAkkOY8Ay+y/JP5r8eZUAM9SYQ/jv8YxAJTiYAQoSRqYTt5Jwv4OEZ15lPi1M0g5VWIRngWwCPalkw2cQZIkRcn4T5K0KiW6MQJUOOvnNgIssz9wLcZ/CuMZKuzBVP6fUzSOAaAUDyNASdJAjhLPAxKHiMqLNHG6M0g5N5w5wOMOkWvDaOZQZ5AkSdEx/pMk9UeJbhJKGAEqjPxFgN1MxvhP4TxDhQ8Y/zWeAaAUFyNASdLqlfkosLNDROcCWnnMGaScO4SXSLnYIXIupX3JC+CSJElxMP6TJA1EGz1LIsCKYyiAagTYzVaZ/0q7mUzKNRj/KYxnSDzzX1YYAErxMQKUJK1cL83A2Q4RnX/SYjAkFUZCF/BPh8i1iaR8xBkkSVIUjP8kSYNRjQDbMQJUGOuTclemI0DjP4VVjf/a+LFTZIMBoBQnI0BJ0orNpw1ydCp71UbCyRzKcw4hFUSJF0i41CFyronpjiBJkgrP+E+SNBRt9IBnAlQw65Nm9EyAXXzC+E8BGf9lkAGgFC8jQEnS8maxBnCqQ0TnQR5nnjNIBbOIy4B/O0SOpezk4zVJklRoxn+SpFooMQcjQIWzHil308mbM/MVdfEJEq7G+E9hPEPK7sZ/2WMAKMXNCFCStMwwjgMmOERkUo6mg8UOIRXMdP4LXO4Quf8d3e4IkiSpkIz/JEm1VGIOKW0YASqM9WjirkxEgN0cYPyngOaTsjvt/MQpsscAUJIRoCQJ5jKJlM87RGQS7qWd7zqEVFiXAs84Q65/Tx/ETNZyCEmSVCjGf5KkemhnrhGgAmp8BNjNAaRchfGfwphPyh7Gf9llACgJjAAlSYs5ExjjEFGpkHC0M0gFVuJZYLZD5NoajOQzziBJkgqjl+EY/0mS6qWduSS0YgSoMKoRYCNeY6/Gf575T6HMp8kz/2WdAaCkpYwAJSlWPbwROMghIpNwNa381CGkglvEDOC/DpFjKYeTkjiEJEnKvV6GM5+vYfwnSaqnNq4wAlRA6xH6NfZuDiblGqDZ+RVANf7z9aTMMwCU9EpGgJIUowoz8F1isXmJlFOcQYrA4TwFlB0i195IF+93BkmSlGvGf5KkkIwAFVa419i7OISUudj6KIx/0cROxn/54C8FSY07QJEkNV6ZnYEPOkR0ZlDiUWeQonnkfyHwokPkWDPTHUGSJOWW8Z8kqRHauIKUwzACVBj1f429i0NImIOdj8L4F7ArrfzKKfLBXwySGnOAIklqvA6agAsdIsoHbRc4gxSRVv6x5MlB5VXKR+lhQ4eQJEm5Y/wnSWqkduYZASqg6mvsPWxT88/czRTjPwVUjf9K/Nop8sNfDpJWfYBiBChJxTWBzwDbOUR0TqfEs84gRSbhAmCBQ+RWC320OoMkScoV4z9JUhZUI8DPAH2OoQDWpcK99NTwtZduppDSg32PwjD+yyl/QUha9QGKEaAkFdM8RpJwpkNE5w9AtzNIEWrlMeDLDpFjCW30MtwhJElSLhj/SZKypJ3rSIwAFcx4KtxRkwjQ+E9h/RPjv9zyl4Sk1TEClKQiWshRwMYOEZ3jKLHIGaRonQMsdIbcmsDTfMwZJElS5hn/SZKyqI2vLokAFzuGAqhGgF28fdCfoYtDjf8U0D+pGP/lmb8oJPWHEaAkFclsxgPHOER0fkgb33IGKWIlHiXlWofIsYRpjiBJkjLN+E+SlGXVCPBAjAAVxngSbh9UBFjmMBK6selRGNX4byq/cYr88peFpP4yApSkomimA1jbIaKSknA0CalTSJFLOAuf5M6zHelhG2eQJEmZZPwnScqDNr5K6pkAFcx4Eu6gm3f0+yPKHAaUsedRGMZ/BeEvDEkDUY0AfcFJkvJrNq8DSg4Rna/Rxg+cQRIl/gT0OkSOpUx1BEmSlDnGf5KkPGnna0aACmgcKbf3KwLsphXjP4XzTxJ2Mf4rBn9pSBqodalwpxGgJOVUC+cDIxwiKguBk51B0iueCTgLqDhETqV8hjJjHUKSJGWG8Z8kKY/a+RoJn8YIUGGsPgLsppWULux4FMY/SNiFNn7rFMXgLw5Jg2EEKEl5VOZdpHzcIaJz2ZIzfklSVSsPAjc6RG6tQcpBziBJkjKhl+E8Qy/Gf5KkPGqj1whQAVUjwE7e+ar/TzX+88x/CuUfJOxq/Fcs/vKQNFhGgJKUPxcBiTNEZT6LONcZJL1KyplA6hA5lTCN1Pt0SZLUYEvjv5SPOIYkKbeMABXWOJq4bbkIsEzbkvjP53oUwj9IPfNfERkAShoKI0BJyosu9gXe5xDROZPDecoZJL1KO78Evu0QubUlZXZxBkmS1DDGf5KkImmjF/gURoAKYxxNS84EWKYN6ML4T2FU4792fucUxWMAWFx/AP7pDAqgGgGW2dopJCmjOmgh4SyHiM5fWMBsZ5C0ynsIzwKYXwnTHEGSJDWE8Z8kqYhKXI8RoMIZSxP3YvyncIz/Cs4AsLgeAd4PPOEUCmBd4C7PBChJGTWRduCNDhGZhOM5ggUOIWmlSvyMlNsdIrc+whw2cQZJkhRUL8OZz/XGfwroF04gKZgS15PySYwAFcYojP8UxpPGf8VnAFjsA5TfA7tgBKgw1qXCvfSwnVNIUobMZU3gZIeITML/o5XrHUJSP5zuBLnVTIXDnEGSJAWz9Mx/8GHHUCAnA3OcQVJQ7Xx9SQS4yDEkFcCTNBn/xcAAsOiMABXWeCrcYQQoSRmymOOB9R0iMilfJPGynpL6oZ0fknCvQ+T2932JmYxwCEmSVHde9lfhnUyJs51BUkNUI8BPYQQoKd8eo5kdaOVBpyg+A8AYGAEqLCNAScqKTjYAjnKI6NxAie85g6R+SzjTEXJrXYazrzNIkqS6Mv5TeMZ/khqvna+TeCZASbn1GM3szGH80SniYAAYCyNAhWUEKElZkHAWMNohorKIhBOcQdKAtHI3GA7nVhPTHUGSJNWN8Z/CM/6TlB1tfIOUAzAClJQvfzP+i48BYEyMABWWEaAkNVIP25BwoENEJqGLNv7gEJIGLPUFthzfdu+lzNscQpIk1Zzxn8Iz/pOUPe3cYAQoKUf+BsZ/MTIAjI0RoMIyApSkRqlwIdDsEFF5jsQnySUNUju3Aj92iJxKaXcESZJUU8Z/Cs/4T1J2tXMD8DFggWNIyrBq/FfiT04RHwPAGBkBKiwjQEkKrYddgD0cIjIpZ9PKPxxC0pB+jyifEj7NbMY7hCRJqgnjP4Vn/Ccp+0p8B/g4RoCSssn4L3IGgPEeoBgBKiQjQEkKpYOmJWf/U1weI+EyZ5A0xMeJNwE/c4hcGk0LBzmDJEkaMuM/hWf8Jyk/SnyHlH0xApSULY9i/Bc9A8C4D1CMABWSEaAkhTCJg4C3OURkUk6gxAsOIWlIElLgPIfI7X3B4XT4PI8kSRoC4z+Fd5Lxn6Tcaee7RoCSMuRR+oz/BC1OELkSv6fMLsDdwEQHUZ0tjQB3p5WfOock1dgMRpFyhkNE52c8ybXOIKkmnuAbTGJ3h8ipTRgOvOQQGZFyBglrO0TOJDzkCJKiZPyn8E6ixDnOICmX2vku3XyMlBuBEQ4iqUGq8d80/uwUMgCUEaBCMwKUpHoZw+eBjRwiMgnH0UHFISTVRPX3yZ0OIdVAO193BElSLhj/KTzjP0n518YtSyLAG4CRDiIpMOM/LcdLw6jKywErLC8HLEm1dgXrAsc6RGRSvk2boY4kSZIkaZCM/xSe8Z+k4mjjFhL2xbPxSwrrUZrYyfhPr2QAqGWMABWWEaAk1dIiTgPGOkRU+mjieGeQJEmSJA2K8Z/CM/6TVDxt3ELKxzAClBTGX2liJ1r5i1PolQwAtTwjQIVlBChJtTCb1wGtDhGdObTxW2eQJEmSJA2Y8Z/CM/6TVFzt3GoEKCmAv9LEzsZ/WhEDQL2aEaDCMgKUpKFq5kJguENE5b/A6c4gSZIkSRow4z+FZ/wnqfiMACXVl/GfVskAUCtmBKiwjAAlabB6eDfwMYeIzgWUPE6TJEmSJA2Q8Z/CM/6TFI92biXhoxgBSqqtv1Lxsr9aNQNArZwRoMIyApSkwUi5CEgcIiqPM4oZziBJkiRJGpBehjOf643/FJDxn6T4tHGbEaCkGnqECjsxlUecQqtiAKhVMwJUWEaAkjQQXexHynsdIjIJp3AQzzuEJEmSJKnflsZ/8GHHUCDGf5Li1cZtwEcwApQ0NI9QYWfjP/WHAaBWr8Tv6WNnjAAVhhGgJPVHmWEkPokaoV8zjq84gyRJkiSp34z/FJ7xnySVuJ1qBPiiY0gahIdpYgfjP/WXAaD6ZxoPGQEqICNASVq9qcDmzhCZhGOYTJ9DSJIkSZL6xfhP4Rn/SdJS1QjwoxgBShqYh6mwM6085hTqLwNA9Z8RoMIyApSklZnLmsBJDhGZlLuXXDpCkiRJkqTVM/5TeMZ/kvS/StxO6pkAJfXbw0su+/t3p9BAGABqYIwAFZYRoCStSB8nAes5RFQqJBzjDJIkSZKkfjH+U3jGf5K0Mu3cQcKewPOOIWkVjP80aAaAGjgjQIVlBChJr9TJBqR8ziGi8xVK/MwZJEmSJEmrZfyn8Iz/JGl12riPlL0wApS0Yn8w/tNQGABqcIwAFZYRoCQtO3o7FxjtEFF5kcWc5gySJEmSpNUy/lN4xn+S1F/t3L8kAvyvY0h6hT/QYvynoTEA1OAZASosI0BJ6uItwKcdIjIJFzOdvzmEJEmSJGmVjP8UnvGfJA1UNQLcGyNASVXV+O9QHncKDYUBoIbGCFBhVSPALt7uFJIiPXK70OO36PyTl7jQGSRJkiRJq2T8p/CM/yRpsNq5nybPBCiJh4z/VCu+gKyhMwJUWONJuN0IUFJ0uvggKbs7RGRSTuMI/uMQkiRJkqSVMv5TeMZ/kjRUrTxgBChF7SFa2MX4T7ViAKjaMAJUWEaAkuLSQROJT6pG+eAvYa4zSJIkSZJWyvhP4Rn/SVKtGAFKsTL+U80ZAKp2jAAVlhGgpHhM4mBgW4eITMoxlFjkEJIkSZKkFTL+U3jGf5JUa608AOyJEaAUi4fAy/6q9gwAVVtGgArLCFBS8c1gFCkdDhGd+2jnZmeQJEmSJK2Q8Z/CM/6TpHop8T2qEeBzjiEV2u+BnSnZ06j2DABVe0aACssIUFKxjeaLwEYOEZWUlKOdQZIkSZK0QsZ/Ci3hROM/SaqzagS4F0aAUlH9HtjF+E/1YgCo+jACVFhGgJKK6QrWJeEYh4hMyrW08xOHkCRJkiS9ivGfQks4kTbOdQhJCqDE96h4JkCpgIz/VHcGgKofI0CFZQQoqXgWcTqwlkNEZSEVTnUGSZIkSdKrGP8pNOM/SQpvKt83ApQK5fcs9rK/qj8DQNWXEaDCMgKUVByz2QI4zCGicynT+LMzSJIkSZKWY/yn0Iz/JKlxjACloniQxezMdJ50CtWbAaDqzwhQYRkBSiqGFs4HhjlEVObTzPnOIEmSJElajvGfQjP+k6TGm8r3SfggRoBSXj3IYnYx/lMoBoAKwwhQYRkBSsq3LrYn9Un9CHVwGE87gyRJkiTpZcZ/Cs34T5Kyo40fLIkA/+MYUq78CtjR+E8hGQAqHCNAhWUEKCmfUhISLgISx4jKn1lA2RkkSZIkSS8z/lNoxn+SlD3VCHBPjAClvPglsCsl/u0UCskAUGEZASqs8STcYQQoKVd62B94j0NEJuFYjmCBQ0iSJEmSAOM/hWf8J0nZ1cYPSD0ToJQDvwR2M/5TIxgAKrxlEeDjjqEAxhkBSsqNXoaTcrZDRCblR7Ryg0NIkiRJkgDjP4Vn/CdJ2dfOD2liF2C+Y0iZZPynhjIAVGNUI8BdMAJUGEaAkvJhPtOAzRwiMilHk5A6hCRJkiTJ+E/BGf9JUn608lOa2B0jQClrfoHxnxrMAFCNYwSosIwAJWXbPMYBJztEdK5nKt93BkmSJEmS8Z+CM/6TpPxZFgE+7RhSJvyCRcZ/ajwDQDWWEaDCMgKUlF0LORFYxyEiu9VTTnIGSZIkSZLxn4Iz/pOk/Grlp2AEKGVANf47nKecQo1mAKjGMwJUWEaAkrKnhw2Bwx0iOrNp52FnkCRJkqTIGf8pNOM/Scq/Ej/DCFBqpJ8b/ylLDACVDUaACssIUFK29HEeMMohovIMizjLGSRJkiQpcsZ/Cs34T5KKwwhQapSfs4jdjf+UJQaAyg4jQIVlBCgpG7p5KwmfdIjIJJztA0NJkiRJipzxn0Iz/pOk4inxMyrshhGgFMrPafbMf8oeA0BlixGgwjIClNR4KRd6TBadRxjG5c4gSZIkSREz/lNoxn+SVFxT+fmSCNAgSaqvn9HMbhxmcKvs8cVmZY8RoMIyApTUOGX2BnZziMiknMghvOQQkiRJkhQp4z+FZvwnScVXjQB3xwhQqpef0czuxn/KKgNAZZMRoMIyApQUXi/NwHkOEZ2f8yRfcwZJkiRJipTxn0Iz/pOkeEzl5ySeCVCqA+M/ZZ4BoLLLCFBhGQFKCusZpgBvdojojr6PpoOKQ0iSJElShIz/FJrxnyTFp41fGAFKNfVT4z/lgQGgss0IUGEZAUoKYwajSDnVISKT8C1audshJEmSJClC1fjv6xj/KRTjP0mKlxGgVCs/pc/4T/lgAKjsMwJUWEaAkupvDY4BNnSIqCymwonOIEmSJEkRWhb/7eMYCsL4T5K0LAL8t2NIg1KN/6Yx3ymUBwaAygcjQIVlBCipfnpYn5SjHSLCW76d3zmDJEmSJEXG+E/hnWD8J0kCqhFgagQoDYLxn3KnxQmUG9N4iNnsQjN3A5McRHW2NALcnXZ+4hySaqbCGcCaDhGV56jQ4QxSjsxkLVporunnHEkLL9Xh93/CaFoYUfPP28c4mkhq/FmHkbJGzb/WlDVIGFbzZVPG+Y8hgGauoZXHHEKSVEjGfwrvBEqc5wySpJe180u62I2EO4HXOIi0Wj9kAR/kCP7jFMoTA0DlixGgwjIClFRbZbYGDnWI6JzPVP7pDFqhTjalmc1I2RTYmOqTcGuTsDbpauOr4cCYOnxVa0DNY6omYGwdvtaRwKhc3NaLoMZJ4TKVOnzOBEhz8u8oydnn1Sv9ib9zcWG/ux7eXZfoVfVV4XHP3CypJoz/FJ7xnyRpxYwApf76AQvY0/hPeWQAqPwxAlRYRoCSaifhYtK65R/KpseAS5xBAMxkBMPYniZ2A94HvAUYt8LIKnUuSRFIOZcOFhf2+6vQDWztDZ27Y/Yr8E07kobK+E/hGf9JklatnV/Sw65UuAsjQGlFjP+Ua01OoFyaxkP0sQvwuGMogKUR4NudQtKgldmblN0dIjIJp1DiBYeIWBebU+YYuriVETxNE/cAJwHvBy8vKilqj5BwpTNIkgrH+E/hGf9JkvqnlV/RxI7Ak44hLecHtHjZX+WbAaDyywhQYRkBShq8DlqA8x0iOr/kccOGKM1gFGX2p8wdJDwEXEDCB4DRjiNJLzuPEoucQZJUKMZ/Cs/4T5I0MK08SBO7YAQoVSV8nxY+yKE85xjKMwNA5ZsRoMIyApQ0OBNpB7ZyiMikHEMHFYeISDfvoJuvMIZ/Ab3AbkDiMJL0Kn9jAV92BklSoRj/KTzjP0nS4LTyILAzRoCKXcL3aWZP4z8VgQGg8s8IUGFVI8Bu3uEUkvplHuOA0xwiOrfQzh3OEIkutqeLm0n5P1IOAsY4iiSt0vkcwQJnkCQVhvGfwjP+kyQNTYnfU40An3AMRcn4TwVjAKhiMAJUWONIud0IUFK/LOIU4DUOEZU+4DhniEAn76WLm0n4AQkfwrP9SVJ/PMHzXOEMkqTCMP5TeMZ/kqTaqEaAu2AEqPh8z/hPRWMAqOIwAlRYRoCSVm82ryNlukNEZx4lfu0MBTaXSZS5kia+tyT8kyT1V8L5fIEXHUKSVAjGfwrP+E+SVFtGgIrP92hhL+M/FY0BoIplGg+RsDNGgArDCFDS6o60LgJGOERUXqSJ052hoDpooZsjWczvgQMdRJIG7B+k9DiDJKkQjP8UnvGfJKk+SvyePi8HrCh8j8We+U/FZACo4mnjD0aACsgIUNKKdbEjCR9ziMikXEgrjzlEAZV5FxP5MSmXAms6iCQNQsJFlHjBISRJuWf8p/CM/yRJ9VW92p6vsau4Uh5gMXsynf86horIAFDFZASosIwAJS2vgyYSLnaI6PyTYVzkDIV7UiChmyOBB4C3OogkDdpTLKLLGSRJuWf8p/CM/yRJYVQjwF3wNXYVTcoD9LGX8Z+KzABQxWUEqLCMACUtM4mDgLc7RGQSTva08QVT5jV0850lZ/0b5iCSNCQX+SSrJCn3jP8UnvGfJCksI0AVjfGfImEAqGIzAlRYRoCSYAajSDnDIaLzII8zzxkKpIsdgV8AezqGJA3Z07QwyxkkSblm/KfwjP8kSY0xjYd8jV0Fcb/xn2JhAKjiMwJUWEaAUuzGcBywkUNE5xg6WOwMBdFNKwl3ARs4hiTVxKWeJVeSlGvGfwrP+E+S1Fi+xq78u5/F7G38p1gYAMoDFKn2jAClWHWyAXC0Q0Qm4V5KfMchCqKL40gpAy2OIUk18SzDucwZJEm5Zfyn8Iz/JEnZsOw19r87hnLmfkZ55j/FxQBQMR6gGAEqBCNAKUbNnAOMcYioVEiMPguhl2a6mEXCeUDiIJJUM5dyCM84gyQpp48TjP8UmvGfJClb2vgDqRGgciThDp7ngxzE846hmBgAKr4DFCNAhWMEKMWkh+1I+YxDROcaWvmpM+Rc9UW9r5EwzTEkqab+Qx9fcgZJUo4fJxj/KSTjP0lSNrXzsBGgciHhDv7LR/gCLzqGYmMAqPgYASosI0ApFhVmeGwVnZeAk50h53pp5mmuAj7uGJJUc5cxjfnOIEnK4eOE4TzNNzD+UzjGf5KkbDMCVPbdbvynmPkiteJkBKiwjAClouvm48CODhGZlEso8ahD5Po2THiaThImO4Yk1dzzDPPsf5KkHFoa/yV8yDEUiPGfJCkflkWAjzmGMuZ2nuejxn+KmQGg4mUEqLCMAKWi6mU4Kec6RHT+RcL5zpBz3ZxHQqtDSFIdJFzOFP7lEJKk3D3GN/5TWMZ/kqR8aedhKuwAPOIYygjjPwkDQMXOCFBhGQFKRTSfzwGbO0R0zqDEs86QY10cBxzrEJJUFy/QxwxnkCTlivGfQks53vhPkpRLU3mECjtjBKjGH0/dxnAv+yuBAaBkBKjQjAClIpnD2sCJDhGdPwBlZ8ixLnYn4WyHkKQ6SehiKv90CElSbhj/KbSU42n3ygKSpBybyiM0sxNGgGrc8dRtjOCjHMJLjiEZAEpVRoAKywhQKoo+zgDWdojoHEeJRc6QU2U2JuFaoNkxJKkuXqKZi51BkpQbxn8KzfhPklQUh/FXI0A1yK3Gf9LyDAClpYwAFZYRoJR3ZbYE2hwiOj+kjW85Q07NZATwDeA1jiFJddPNoT6uliTlhPGfQjP+kyQVzVo8QcLDDqGgEn5o/CctzwBQeiUjQIVlBCjl+8HFxcAwh4hKSsLRJKROkVMjmAm83SEkqW4W0MSFziBJygXjP4Vm/CdJKuLx1Hy+TsrujqHAx1WnU+Ykh5CWMQCU/pcRoMIyApTyqIsdSdnLIaKzmAr/coac6ubDeNZOSaq3K2jlMWeQJGWe8Z9CM/6TJBXxeGo+Xwf2cQw1yFlGgNIyBoDSihgBKiwjQClvhvMg8KxDRGcYCRc4Qw7NZC1SZjmEJNXVIireT0qScsD4T6EZ/0mSino8ZfynxjuLLk52BskAUFo5I0CFZQQo5ckU/gWc7RBR+ihdXs4gd4ZzLrChQ0hSHaV8mak84hCSpEwz/lP4YyTjP0lSscxkhMdTypSEM40AJQNAadWMABWWEaCUJ+P5EvBHh4jyweSF9NLsEDlR5l0ktDuEJNXVIiqc5wySpEwz/lNoxn+SpKKZyQiG83WPp5Q5CWdS5hSHUMwMAKXVMQJUWEaAUl5MZiEpJzhElN7CfA5xhhzooAWY6+MeSaqzlGuYxp8dQpKUWcZ/Cn98ZPwnSSqWmYxghMdTyrQzjAAVM18Ik/rDCFBhGQFKedHO10l5wCGidDZlxjpDxk3iIGArh5CkuuqjiXOdQZKUWcZ/Cs34T5JUNEvjP9jbMZRxZ9DNqc6gGBkASv1lBKiwjAClvEg5Eqg4RHTWA453hgwrM4yUkxxCkuruWtr4gzNIkjLJ+E9hpSQcZfwnSSqUGYxiBN/G+E/5OSI73QhQMTIAlAbCCFBhGQFKeTCVnwPXOkSUvsAcNnOGzD7IPxR4nUNIUl1VSHyBW5KUUcZ/Cv0oNOHztPElp5AkFcYMRjGGm4DdHEM5OzI7nTKnOYRiYgAoDZQRoMIyApTyoMLxwPMOEZ3h9HGOM2RQL8NJOM4hJCnAb9w2fusMkqRMPiYw/lM4xn+SpOIpM9r4TznXYQSomBgASoNhBKiwjAClrJvK34EZDhGl/elhB2fImKeZAmzqEJJUVxUqnO0MkqTMMf5TWMZ/kqTiKTMajP9UCB10c54zKAYGgNJgGQEqLCNAKfvOA/7mDBGq8CU6PK7OlIQ2R5Ckuv+uvYGp/MYhJEmZYvynsIz/JEnFsyz+29UxVJAjtuOMABUDX6iUhsIIUGEZAUpZVuIFUk8lHqltmciBzpAR1fvJbR1CkuoqJfGJU0lSxhj/KfzxkPGfJKlYyowm5WaM/1S8IzcjQBWeAaA0VEaACqsaAXbyTqeQMuhJvgL81CGidD5zWdMZMqBCqyNIUt19i1aPeSRJGWL8p7CM/yRJxbM0/kvYxTFU0CO44yhzvkOoqAwApVowAlRY42jiNiNAKYM6qFDhaIeI0vos5hhnaLBZrEHCJxxCkuos4RxHkCRlxkxGGP8pIOM/SVLxGP8pHscaAaqoDAClWlkWAf7dMRSAEaCUVVO5F/imQ0TpaGaxkTM00DD2A9ZyCEmqq+/Qxo+dQZKUCTMZwXC+bvynQIz/JEnFU2Y08G3jP0XkWMpc4AwqGgNAqZba+AOpEaCCMQKUsutoYIEzRGcULZznDA21txNIUp159j9JUlYY/yks4z9JUvEsjf9gZ8dQZI4xAlTRGABKtdbOw0aACsgIUMqiEn8CZjtElD5Jmfc5QwP00kzqu1Qlqa5SbqONHziEJKnhjP8U+ijI+E+SVDRXMgbjP8XtGLq40BlUFAaAUj0YASosI0Api/o4E3jKIaKTABeRkjhFYE/xbmBth5CkOmrmbEeQJDWc8Z/CSoGjjP8kSYVyJWN4yfhPIuFoI0AVhQGgVC9GgArLCFDKmmnMB85wiCi9i24+6QzBH9l8wBEkqa7uopUHnEGS1FDGfwqrGv+VmOkUkqTCWBr/pezkGBLVCLDMRQ6hvDMAlOrJCFBhGQFK2dMJPOQMUTqXGYxyhqD2cAJJqqOEMx1BktRQxn8Ky/hPklQ8xn/SynzRCFB5ZwAo1ZsRoMIyApSypMQiUo5xiChtzBiOdoZAemkGtnEISaqThO/Txn0OIUlqGOM/hWX8J0kqnisZw4t8x/hPWqkv0s3FzqC8MgCUQjACVFhGgFK27gNuJuEOh4jS8cxiI2cI4BleD55xUZLqpsJpjiBJahjjP4Vl/CdJKp6l8R+83zGkVR4JfsEIUHllACiFYgSosIwApSypcAzQ5xDRGU2Ll0sM9G/szY4gSXWS8iPaucshJEkNYfyn0Ec+xn+SpOIdT63Fi9yB8Z/U3yPCL1BmhkMobwwApZCMABWWEaCUnd//vwTmOUSUDqSbdzhDnSVs5QiSVDenO4EkqSGM/xSW8Z8kqYjHU2sxnNuA7R1DGpDPGwEqbwwApdCMABXWOJq43QhQyoAKJwH/cYgIj7dTvkRK4hR1ZQAoSfXxU0rc5gySpOCM/xSW8Z8kqXjKjGU4t5HwbseQBuXzlLnEGZQXBoBSIxgBKqyxRoBSBkzln8AFDhGl7elmP2eoo4TXOoIk1eX3awcJqUNIkoKayQhG8A3jPwVi/CdJKp4yY0m51fhPGrKjKHOJJ3lQHhgASo1iBKiwjAClLBjOxcBfHSJK5zOPkc5QJynrOYIk1dzPaeU7ziBJCmpp/Ad7O4aCPJo0/pMkFU2ZseCZ/6QaOooeZhsBKusMAKVGMgJUWEaAUqMdwkvAiQ4RpdeygCOdoW5e4wSSVHNnePY/SVJQxn8Ky/hPklQ8S+M/eJdjSDU9cmynm04jQGWZAaDUaEaACssIUGq0Nq4j4fsOEaGEkygz0SHqYrQTSFJN/ZYnuMkZJEnBGP8pLOM/SVLxlBlLwu0Y/0n1UqKbLiNAZZUBoJQFRoAKywhQaqSElJQvgmfUidCapJzuDDVWZpiPaySpxlI66KDiEJKkIIz/FPpIx/hPklQ08xhHwu2kvvYn1VmbEaCyyhfKpKwwAlRYRoBSI5X4P+A6h4hQwhS6eItD1NQwJ5CkmvotT3KDM0iSgjD+U1jGf5Kk4pnHOBZxm/GfFEwbZcpGgMoaA0ApS4wAFZYRoNTYo7DjgOcdIjrNJFziDDW1yAkkqYZSzvbsf5KkIIz/FPoox/hPklQ08xjHQs/8JwWX0EqZMh02V8oOfxilrDECVFhGgFKjtPIYKRc7RJR2pouPOEONlFgEhiqSVCMPsza9ziBJqjvjP4Vl/CdJKp6l8R+8wzGkBkhoZQJdRoDKCn8QpSwyAlRYRoBSo4zmAn/XR/vA8EJ6Ge4QNfNfJ5Ckmtw/nclk+hxCklRXxn8Ky/hPklQ8xn9SNiS0MtEzASob/CGUssoIUGEZAUqNcBDPAyc5RJQ252kOd4aa+acTSNKQ/YnHuc4ZJEl1ZfynsIz/JEnFU43/7sD4T8qKw4wAlQX+AEpZZgSosIwApUZ4gquAnzhEhBJOocxrHKImDAAlaej3S+fQwWKHkCTVjfGfwjL+kyQVz2zGL4n/3u4YUqYcxiS6jQDVSP7wSVlnBKiwjACl0DqokHIE1SemFZdxpJzuDDXxZyeQpCF5lHFc7QySpLox/lNYxn+SpOKZzXiauR3jPymrR6CHGgGqkfzBk/LACFBhGQFK4X/P/5CU6x0iQgklymztEEP2WyeQpCE5m8ksdAZJUl0Y/yks4z9JUvFU4z/P/Cdl/0j0UCbSYwSoRvCHTsoLI0CFZQQohdbH0cALDhGdZuASZxiihN84giQN2t8Yz5edQZJUF8Z/Cisl5UjjP0lSoSyL/7ZzDCkXphgBqhH8gZPyxAhQYRkBSiFN52+kfMkhorQrXezlDEOQeAZASRrC79DzPPufJKkujP8UVjX+a+cyp5AkFcYVrEsz92L8J+WNEaCC84dNyhsjQIVlBCiF1Mc5wBMOEaGEiykzzCEG6TAeAZ5zCEkasCf4L/OcQZJUc8Z/Csv4T5JUPFewLou4C9jGMaRcmsJE5hgBKhR/0KQ8MgJUWEaAUijT+S8ppzhElLYkpd0ZBikhBX7mEJI0YOfxBV50BklSTRn/KSzjP0lS8SyL/7Z2DCnXDjECVCj+kEl5ZQSosIwApVCeZB7wU4eIUMLpXM46DjFotzuBJA3IP3ieHmeQJNWU8Z/CMv6TJBWP8Z9UNIcwiavppdkpVE8GgFKeGQEqLCNAKYQOKlQ42iGiNJ4WzwA5BLc6gSQNyIWe/U+SVFPGfwrL+E+SVDydrGf8JxXyyPWTzDcCVH0ZAEp5ZwSosKoRYJl3OYVUR1O5l5QbHSJCCdPpZiuHGIQ2fg484RCS1C//ZjFlZ5Ak1Yzxn8Iy/pMkFU8n69Fk/CcV2AHM52o6aHEK1YMBoFQERoAKayxwmxGgVGfVswAucIjotFDhPGcYhIQUuNMhJKkfUi5iOv91CElSTRj/KfSRjPGfJKlolsV/b3YMqdAOYCJXGQGqHgwApaIwAlRYRoBSvU3jz6Q+mR2lhA/Rxe4OMSg3O4EkrdZTDGO2M0iSasL4T2EZ/0mSisf4T4rNAUz0TICqPQNAqUiMABWWEaBUb8M4A3jSISKUcKkP/gZhPN8C/uUQkrRKl3AozzmDJGnIjP8UlvGfJKl4qvHf3Rj/SbH5hBGgas0AUCoaI0CFZQQo1dOhPEfK6Q4RpTcxgcOcYYAmsxC42iEkaaWeZTiznEGSNGTGfwrL+E+SVDw9rL8k/tvKMaQofYIJXGMEqFoxAJSKyAhQYRkBSvW0Nj3Arx0iQglnUGasQwxYN5A6gySt0CUcwjPOIEkakhmMYgTfxvhPYRj/SZKKp4f1qXAXxn9S3BImGwGqVgwApaIyAlRYRoBSvUymjyaOcogorQuc5AwDVOL3wA8dQpJe5T/0MdMZJElDMoNRjOEmYDfHUADGf5Kk4qnGf575T1KVEaBqxABQKjIjQIVlBCjVSyt3k/Jth4jSEZR5vTMM+AHzbEeQpFe5jGnMdwZJ0qAZ/yks4z9JUvEsi//e5BiSXpYwmYlcawSooTAAlIrOCFBhGQFK9Tv4PwpY6BDRGQFc4AwDNI6vAg86hCS97HmG8SVnkCQNmvGfwjL+kyQVj/GfpFXb3whQQ2EAKMXACFBhGQFK9VDiT+BZzSK1L92+yDYgk+kj4QyHkKSXXcYU/uUMkqRBMf5TWMZ/kqTimcUE4z9J/bA/k7jOCFCDYQAoxcIIUGEZAUr10McZwFMOEaGUC+jw2H1AHqcX+I1DSBLPU+ESZ5AkDYrxn0I/+jX+kyQVzSwm0GL8J6nfR8T7MYnrKDPMMTQQvogoxcQIUGEZAUq1No35pJzuEFHalkkc7AwD0EGFhA6HkBS9lE6m8k+HkCQNmPGfQh+1GP9JkopmWfz3RseQNIAj4/1IuNYIUANhACjFxghQYRkBSrX2JJ3Agw4R5QO+s5nLmg4xAK3cAPzAISRF7AWaucgZJEkDZvyn0I94jf8kSUXTw4a08ADGf5IGd4S8H3gmQPWfAaAUIyNAhWUEKNVSB4tJ+KJDRGkCizneGQYgIQUOBRY4hqRIfw920co/HEKSNCDGfwrL+E+SVDw9bEiFe4DNHEPSEHwcI0D1kwGgFKtlEeBjjqEAjAClWmrjFuBWh4jSF+hkU2cYgBK/By5wCEkReolmLnYGSdKAGP8pLOM/SVLxzGIj4z9JNfRx4KtGgFodA0ApZu08TLMRoIIxApRqexT3BWCRQ0RnJE2c5wwDtICzgd85hKTIdHEojzuDJKnfjP8UlvGfJKl4ZrERLcZ/kmpuX+BGZjLCKbQyBoBS7A7jj0aACsgIUKqVVh4Euh0iSpPp5L3OMABHsIAm2oGKY0iKxIt49lNJ0kAY/ymsFDjC+E+SVCjL4r/XO4akOtibEXzDCFArYwAoyQhQoRkBSrXSzKnAUw4RnYQmZtLhsfyAtPIAcKZDSIpCSjclnnAISVK/GP8p9JEKHEGJy51CklQYxn+SwjAC1Er5oqGkKiNAhWUEKNXmd/fTwNkOEaW3MYlPO8MAPcEZwK0OIangXiLlQmeQJPWL8Z/CMv6TJBVPmY2N/yQFtDcjucEIUP/LAFDSMofxRyrsADziGArACFCqjcuBPzhDhFLO5UrGOMQAdFChmU8Df3EMSYWV0MNU/u4QkqTVMv5T6Eexxn+SpKIpszEY/0kKfmS9lxGg/pcBoKTlTeURKuyMEaDCMAKUhqrEIhKOcYgobcCL3vYDdhhPU+EAYIFjSCqgBSRc4AySpNUy/lNYxn+SpOJZFv+9zjEkNeAIey9GcCPzGOkYAgNASStiBKiwjACloWrjJuAuh4jSMfSwoTMM+Fjn/5HQSvVFKEkqjpS5tPKYQ0iSVsn4T6GPUIz/JElFU43/7sX4T1Jj7clCbjACFBgASloZI0CFZQQoDVXKEcBih4jOaCqc6wyD0MZVJBzuEJIKZCEtnv1PkrQaxn8Ky/hPklQ8c9iEavz3WseQlAF7stAzAcoAUNKqGAEqLCNAaSja+R0w1yGi9Gk6ea8zDEIbs4HTHUJSQczlMP7qDJKklTL+U1jGf5Kk4pnDJvRxD8Z/krLlg0aAMgCUtGpGgArLCFAaimGcAjzrENFJSLiIlMQpBqFEB3CJQ0jKuUVUPPufJGkVjP8UlvGfJKl4jP8kZZsRYOQMACWtnhGgwjIClAZrCv8CznGICCW8mx4+4RCD9ARHk3CZQ0jKsSuY6uM1SdJKGP8pLOM/SVLxVOO/ezH+k5RtH2QB3zQCjJMBoKT+MQJUWEaA0mCN51LgYYeIUMqFlBntEIPQQYU2jiDhKKovVklSniyiifOdQZK0QsZ/Cv3I1PhPklQ0nWy6JP7b1DEkZV7CB4wA42QAKKn/jAAVlhGgNBiTWUjCCQ4RpQ2BzzvDELTxJVIOBhY5hqTcSPkyrfzFISRJr2L8p9BHJcZ/kqSi6WRTmrgH4z9JeZLwARbyLWYwyjHiYQAoaWCMABWWEaA0GG18A7jPIaJ0PGUmOsMQtHMl8DHgv44hKQcW0cy5ziBJehXjP4Vl/CdJKp4uNqeJBzD+k5RPezCGbxoBxsMAUNLAGQEqLCNAaTCqlzKtOER01gDOcoYhKvEd+ng78CvHkJTx+/srPfufJOlVjP8UlvGfJKl4utichHuoXnVFkvLKCDAiBoCSBmcqj9DM7sBjjqEAqhEgvMkppH5q4xfAlx0iSgfTxdudYYim8RDDeRcw0zEkZVQfFc53BknScoz/FJbxnySpeJbFfxs4hqQC2IM1vBxwDAwAJQ3eYfyRCjvgmQAVxlhga2eQBnSkdyLwH4eI8JZP+BIpiVMM0SG8RIkjSTkQLwksKXuupJ2HnUGStNxjgTHcjPGfwkhJONz4T5JUKMZ/Cns0JYX6WdvdCDCGJwQkaSi8HLAkZVcr/wDPDBSp99DDvs5QI+1cTR9vAW5xDEkZsRg42xkkSf9jOLCrMyiA6pn/2pjtFJKkwujmDcZ/Cno8lfB54AanUKCfuN0Zw61cyRjHKCYDQElDZwQoSdk1nBn+fo72wdyFzGSEQ9TINP5Mib1I+TDwqINIavDv+Ksp8SeHkCRJDTkS8bK/kqSi6eYNpMZ/Cng8lXIkJS5lPJNJuM5JFMiOvMh3mcUaTlE8BoCSasMIUJKy6RBeIuV4h4jSaxnBEc5QY+3cTAtvJuVLVM/AJUmh9QHnOIMkSWoA4z9JUvEsi/8mOYaCHU+1cxkAk+ljHAcaASqgHWnhO0aAxWMAKKl2jAAlKZva+RopDzhElE5hFhOcocYO5TnaOYoKmwMzgQWOIimYhGto52GHkCRJgRn/SZKKZzZbGP+p4cdTSyNAuNaJFMiONHsmwKIxAJRUW1N5hGZ2wghQkrIl4Sig4hDRWZMWOpyhjsc9JY6kmS2ohoAvOYqkOutjsWf/kyRJwRn/SZKKZzZb0MzdGP8p3PHU51Z6PDWZPsZzEEaACiVhByPAYjEAlFR7h/FXI0BJypgSPwOucYhI75nLbO0MdT72KXEksAVwNvA3R5FUFylfZRoPOYQkSQp6BLKqF6slScoj4z815nhq1ir/1NIIMPW1HAViBFgoBoCS6sMIUJKyp8IJwPMOEZ1mUi51hgBKPEqJk3mCTYEdgG7/zUmqoT4SznIGSZIUUP9erJYkKU+q8Z+X/VW446mEw/t9PDWZPtbms0aACiZhB1q4xQgw/wwAJdWPEaAkZctU/g5c6BBRPoDbhS72cYhAOqhQ4nuUKAEbkPAJUnqAvziOpCH4GiV+7wySJCkQ4z9JUvGU2XJJ/DfRMRTkeCrhcNqYPaCPWhoBwtVOqEDeRwu3MJc1nSK/DAAl1ZcRoCRlzYXAY84QoYSLKDPMIQIr8Sxt9NJOGyVeRx+vB0rAVcAvgUWOpAHoA+a/4r/FThKNCk2e/U+SJAVj/CdJKp4yWwJ3Y/ynUMdTg4n/lqpeDvhgjAAVzvtYzHeNAPOrxQkk1d1h/JU57EQf9wKbOogkNVCJF+jiBBKucozovAGYDl4OuKGm8WeqlwbuBqDMMFI2XXKMtDFNrEeFtUlYC4CEkaSMAl4AFgzwb3uBZIAfk/IiKS8N6GOaeImUFwf4tS1Y8j31XzKIj6mwkOYBX4Z5EYv474A+opnF9PHcgD5mBIs5dIAf80qXsw7D+Av4hEwkemnlQWeQJEkBGP9JkorH+E/hj6em00bnkD7LZPro5WDmA/AZZ1UA76OPW5jLnkN67loNYQAoKQwjQEnKjhLX0EM7Ke91jOicSpmrKfFvp8jMv8dFwMNL/pP6bxifx/gvFhXgHGeQJEkBGP9JkoqnGv/dA0xwDAU6nppOaYjx31LLIsAUONB5FeAn+L1GgPnkJYAlhePlgCUpGxJSEo5e8kBUcRkPnOYMUs7NYxzVM3oqBilfp8Sv/3979x0nV13vf/x1ZjcJ7QrhKmBHrw0L2K7+VEoAQxEbgrEBl5SdmU0wQhCUvoReRVq20AQFDL1JT4BQFKR3QgkBkhCEJEDKZnfm/P6YDTVly8yZU17Px4N/eOzO7rzPZM/3zLzP52sQkiSp5qsOy3+SpLTpYCMs/ynK9VTI2KqV/5apbAc8EtzZSZG9kpeVAL0BPUEsAEqKliVASYqHJv5JwIUGkUlFJvFlY5ASbCkTgHUMIhNCGjjCGCRJUs3XHJb/JElp08FGlJmC5T9FtZ4KGUuR1po8+rISYMC5Rq2IXtHfo5vrLAEmhwVASdGzBChJ8RCwL7DIIDKnkRzHGoOUUG2sDfzWIDJzrr6EJh4yCEmSVEOW/yRJ6dPBxpS5Dct/ikaZgFE1K/8tM4IS6zDKEqAi9F26uY6T+YBRxJ8FQEn1YQlQkuqviRcJONEgMml7WtnOGKRE2gun/2VFSJnDjUGSJNV0vWH5T5KUNq1sQpmbgQ8ahiJQBkaR55xIftqyEiD8xegVke8yhGstAcafBUBJ9WMJUJLqr4tjgFkGkUEBJ9LGIIOQEqTyJst4g8iMyyjyoDFIkqQasfwnSUqfVjYh4CYs/ykalfJfIeIy3ghKzLYEqEh9lyFOAow7C4CS6ssSoCTV1zjeJOAAg8ikjYC8MUgJMoTfAUMNIhNCQiYagyRJqtlaw/KfJCltLP8pWiXqUf5bpoWyJUBF7DsMYQqn+/50XFkAlFR/lgAlqb5mcS5wj0Fk0kRO5b+NQUqA01gLp/9lR8jlTv+TJEk1W2lY/pMkpU07X7X8pwiVCOtY/ltmWQkwjGj7YQm+QQM3WgKMJwuAkuLBEqAk1fciMWBPKh8CKFvWZZATIKVEaOR3+CZ2VoTAkcYgSZJqtM6w/CdJSpd2vkpo+U+RqZT/ipwbi9+mhTIFRhHQ6qFRRCwBxpQFQEnxYQlQkuonz50EXGIQmbQH7XzOGKQYO5c1gd8ZREYEXEmRfxuEJEmqMst/kqT0ebv85y4nikKJgJGxKf8tExDSxFhLgIpQpQR4BusaRXxYAJQUL5YAJameF4n7AksMInMGEXKcMUgxtpjfAh8yiMw4wggkSVKVWf6TJKWP5T9Fq1L+y3NeLH+7ZSVAmOShUkS+QckSYJxYAJQUP5YAJak+mniOgD8bRCb9mDa2MQYphirT//YyiMy4ijz3GIMkSaoiy3+SpPSZxNcs/ylCJUJ2j235b5mAkDzjsASo6HzdEmB8WACUFE+WACWpPho4AphtEJn0J1poNAYpZhYzDljPIDIi4DBDkCRJVWT5T5KUPpP4GjluxPKfolEp/xX5ayJ+22UlwJDTPXSKiCXAmLAAKCm+LAFKUvRG8wYBhxhEJn2RDzPKGKQYaWMNYG+DyIxrnP4nSZKqyPKfJCl9KuU/J/8pKskq/y0TEFJgD0uAitDXKXGTJcD6sgAoKd4sAUpS9GZxJnCvQWTSYbSxtjFIsdGM0/+yo8xEQ5AkSVVi+U+SlD5tfL2n/GfBRFEoEfB/iSv/LWMJUNH7GiVu4lQL2vViAVBS/L1dAnzOMCQpAi2UgX0MIpPWI2A/Y5Bi4GxWAyYYRGZcSzN3G4MkSaoCy3+SpPRp4+vAjVj+UzQq5b88f0v0s1hWAsR1oSLzNQZxoyXA+rAAKCkZKiXALbEEKEnRKDCVgCsMIoNC9uIMPmMQUp0tpQh8xCAyoswRhiBJkqpyRWf5T5KUNh18A8t/ik4J2C3x5b9lAkLy/BZLgIrO1xjkJMB6sAAoKTksAUpStEL2BjoNInMGU+YoY5DqqDL97/cGkZnz7fU0c4dBSJKkAa8qAvaw/CdJSpUOvkHZ8p8iUyn/FTg/Vc/q7RLgqR5iReSrlgCjZwFQUrJYApSk6BR4xgvCjArZmVY2NwipTpaSBz5qEBkRcLghSJKkAV/FBexBntONQpKUGm+X/4YahiJQImTX1JX/lqmUAMfjZz6KTqUE2MYHjSIaFgAlJY8lQEmKTicTgZcNIoMCTqLF6wUpciczBNjXIDLzt/ZGCtxuEJIkaQAs/0mS0sfyn6JVKf8VuSDVz3JZCTDgFA+5IvJVsAQYFT/Qk5RMlgAlKRrjeZ2AiQaRSV/jI+xmDFLEhjAGp/9lR8BhhiBJkgbA8p8kKX1a+Q5lpmD5T9HoImRE6st/ywSENPE7S4CK0CZYAoyEBUBJyWUJUJKisQ5twMMGkUEhR3MyHzAIKSKTGQzsYxCZcTNNTDMGSZLU7ys2y3+SpLRp57sEXAe+J6lIdBHwC4pcmqlnvawECCf7ElBELAFGwAKgpGSzBChJtTeCEjn2NIhMWp/VLCNJkZnHaOCTBpERoRN2JUnSAFYSlv8kSWnTzncJuRbLf4pGpfyX57JMPvvKdsB7YglQ0dkEuNkSYO1YAJSUfJYAJan2mpgCXGMQGRSyN2dYSJJqro1BwL4GkZm/rVMocptBSJKkfq0kLP9JktKmUv5z8p+i0gWMyGz5b5llJcCQP/uSUEQ2Bm7jNDYwiuqzACgpHSwBSlLtldi758JY2bI6ZY4yBqnmRgIbGkNG5Jz+J0mS+sXynyQpfSbxvZ7y338ZhiKwFBhBgcuNgkoJsMieBBxjGIrIRjQyxRJg9VkAlJQelgAlqbbG8iQwySAyKOSXtLGpQUg1Upn+90eDyIiAW8hzq0FIkqQ+X5lZ/pMkpc0kvkeOa7H8p2gsBX5h+W858vwRONogFJGNaGSqJcDqsgAoKV0sAUpSbZVoAV41iMwJgOMJCYxCqon/Az5lDJk5lx5qCJIkqY8s/0mS0sfyn6K1lNDJfytVYD9CdwNSZL5AI1Np48NGUR0WACWljyVASaqdscwDty3MqG/Twa+NQaqyyvS//QwiIwLuoJlbDEKSJPWB5T9JUvq0sanlP0VoKQE/p8gVRrEKRfa3BKgIfQGYYgmwOiwASkonS4CSVDuzOR141CAyKOQYzmVNg5Cq+u9qF+DTBpERAQcbgiRJ6tNq0fKfJClt2tgU+AeW/xSNSvkvz5VG0UtF9geONAhFxBJglVgAlJRelgAlqTZa6Ab+YBCZ9FGWsLcxSFUymQYC/mgQmXEnTUwxBkmS1EuW/yRJ6VMp/zn5T1Gx/NdfBQ7AEqCi8wVwO+CBsgAoKd0sAUpSrS7+riHkeoPIoJA/0sYnDEKqgnnsAnzOIDIi4BBDkCRJvb7ysvwnSUqbDjajUv5byzAUgaWE7Gz5bwAqJcAjDEIR+TwwlTP5iFH0jwVASelnCVCSaqOBvYBug8ic1Qk4zBikAZpMA7CfQWTGXeS5yRgkSVIvWP6TJKVPB5tR5h9Y/lM0KuW/IlcZxQAVOBBLgIrO5+lmiiXA/rEAKCkbLAFKUvU18TjQYRAZFLIrk/iWQUgD8Bq/onJXo7KhxQgkSVKvrrYs/0mS0sbyn6Jl+a/aChxIwOEGoYhYAuwnC4CSssMSoCRVXwMHAq8ZROYE5DiJkMAopH6YTAMBBxhERoT8kwI3GIQkSVrlqsHynyQpbVrZ3PKfItRJwE6W/2ogz0GWABWhz9PtdsB9ZQFQUrZYApSkav9dfQ040iAy6Tt08HNjkPphHr8AvmAQmXGoEUiSpFWw/CdJSp9WNifgGiz/KRqdBOxMnquNokbyHAQcZhCKyOcsAfaNBUBJ2WMJUJKqayinAE8ZRAaFHE8baxiE1Act5ID9DCIz7qXA9cYgSZJWemVl+U+SlDaV8p+T/xSVTmAny38RKHAwlgAVnUoJcBIfNYpVswAoKZssAUpS9YxgKfAHg8ikjxPwO2OQ+mADfg582SAyIuRgAkKDkCRJK1wtWP6TJKVNK8MJuA5Y0zAUgUr5r8A1RhGRAgcTMtEgFJHPkbME2BsWACVl1xieB4ZhCVCSqnHBdzkBNxpEBoXsTxsfNgipV/9eAgIOMIjMuI8C1xqDJElayerQ8p8kKV0q5b8rgNUNQxFYTMAPLf/VQZFDLAEqQp+1BLhqFgAlZVuBmVgClKTqKLMPUDKIzFkLvNCXeqWdnYGvGERGBBzi9D9JkrQClv8kSenTxjaW/xShxQT8mDw3GUWdFDkEONQgFBFLgKtgAVCSLAFKUrUu9h4k5CyDyKRRdPANY5BWIiQAp/9lyH00efe5JEla4crQ8p8kKV3a2Aa4HMt/isYiy38xUaAFS4CKTqUE2MHHjOL9LABKUmVxYglQkqoh5EBggUFk8Loi5HhjkFaijR2BTQwiM+fDFqf/SZKk5a4SLP9JktKmUv5z8p+isojQ8l+sFGgh5I8GoYh8ljLTmMSGRvFuFgAl6e3FiSVASRqoZuYCRxtEBoUMo50dDUJa7r+PgID9DSIz7qfA1cYgSZKWsyq0/CciaG0zAAAzoUlEQVRJSpd2tqVS/lvNMBSBSvmvyM1GETNFjrEEqAht2LMd8IZG8TYLgJL0TpYAJWnghnIi8LRBZFDI8ZzMEIOQ3qOdn4DbZGfob+GhTv+TJEnvWyFY/pMkpU072xJyOZb/FI1F5PiR5b8YswSoaG1IjlssAb7NAqAkvZclQEkamBEsJWQ/g8ikT7MavzUG6X2c/pcdD1DgSmOQJEnvYPlPkpQ+rWxn+U8RqpT/mphiFDFX5BjgDwahiHySHLfQwaeMwgKgJC2fJUBJGuhF3sXAbQaRQSEH08H6BiH1aOVHwP8aREYETHT6nyRJetcVkuU/SVLatLIdAZdh+U/RsPyXNAWOxRKgovNJyky1BGgBUJJWtjixBChJA1FmT6BsEJnzX5Q5xBikHgEHGUJmPMosrjAGSZLUw/KfJCl9LP8pWouAH1r+S6BKCXBfg1BELAFiAVCSVrU4sQQoSf3VzP2EnGsQmZSnja8YgzKvjR1w+l92BBxCi8V3SZIEWP6TJKVRO9tb/lOEKuW/AlONIqEKHIclQEXnk5SzvR2wBUBJWvXixBKgJPVXA38EXjeIDB75kJOMQXL6X4Y8yiwuMwZJkoTlP0lSGrWzPSGXYvlP0ViI5b90KHAcAfsYhCLyCcrcwul8OotP3gKgJPVucWIJUJL6o4mXCTnOIDIoYKue6WdSNrWyHfBtg8iMQ53+J0mSsPwnSUqjSvnPyX+KykLKlv9SJc/xlgAVoU/QwNQslgAtAEpSb1kClKT+WcQJwPMGkUkn0MYgY1AmBRxgCJnxGLO5xBgkScq8EBhn+U+SlCqt/KCn/DfEMBSBSvmvmVuMImXyHA/83iAUkUyWAC0ASlJfWAKUpL6bwGJC9jOITPo80GwMypw2tgE2NYiMCJno9D9JklwRAOMoMMkoJEmp0coPCLgUy3+KhuW/tCtwApYAFZ1KCbCN/8nKE7YAKEl9X5xYApSkvv/tvBC43SAyqYVT+W9jUKaEHGgImfE4c7jIGCRJyvjqz/KfJClt2tjB8p8itJCAHSz/ZUCBEwjZ2yAUkU9AdkqAFgAlqX+LE0uAktQXASE59gQnJGXQUAZxsDEoM1rZmoDNDCIjQg5z+p8kSRlfDVj+kySlTRs7AJdg+U/RqJT/8txqFBlR5ERLgIrQx8lICdACoCT1lyVASeqbJu4FzjeITBpLO18yBmVCYOE1Q6azLpONQZKkzLL8J0lKn1Z+BlyG5T9F43VChlv+y6AiJwITDEIRqZQAz+AzaX6SFgAlaSAsAUpS35T5I7DQIDKnkZBjjEGpN4lhwOYGkREBhzKCkkFIkpRJlv8kSenTzk4EXAgMMgxF4HVybEuRu4wiowr8CUuAis7HKaW7BGgBUJIGvjixBChJvdXMS8DxBpFJO9DOtsagVGvgEEPIjOnM4u/GIElSJln+kySlTzs7EXIBlv8UjQXk2JYm/mkUGVcpAe5lEIrIx9JcArQAKEnVWZxYApSk3lrIMcBMg8igkD/RQqNBKJUm8T1ChhlEZv6eTaSFboOQJCmDqwDLf5KktGllZ8t/itACcmxn+U9vKXASlRJgaBiKwMcoMY0ONkrbE7MAKEnVW5xYApSk3pjAYkIOMohM2ogP02QMSqUchxpCZjzNHC40BkmSMsfynyQpfVrZmYDzsfynaCwAJ/9pOQqcRMhYLAEqGhtQZkraSoAWACWpuouTZSXAZw1Dklb69/I8Au42iEw6nDNY1xiUKq18B9jaIDIi5DCn/0mSlMEVgOU/SVLaVMp/Tv5TVCrlvwL/MgotV5FWoBlLgIpGpQTYyhfT8oQsAEpStVVKgFtiCVCSViwgpMyeXshl0rp0s58xKFWc/pclzzCH841BkqRMsfwnSUqfNn7eU/5rNAxFwPKfeqdAG5YAFZ0NCNJTArQAKEm1WZxYApSkVSlyFzDZIDIoYDztfM4glAod/D9ChhtEZv5+He70P0mSMsXynyQpfdr4OXA+lv8UjQWU2cbyn3qtUgIsYglQ0Vg/LSVAC4CSVLvFiSVASVqVbvYBFhlE5gwm5BhjUCqUOcQQMuNZZvFXY5AkKTMs/0mS0qedEVj+U3TmU2YbmrnbKNQnBdqxBKjopKIEaAFQkmq7OLEEKEkrM44XgJMMIpN+SqtT05RwHXwD2NYgMiLgCKf/SZKUGZb/JEnp084IQv6G5T9FYz5ltrX8p34r0E5AAUuAikalBNjOl5L6BCwASlLtFyeWACVpZbo5CphtEBkUcByTaTAIJVbIRCAwiEx4nnWc/idJUmZWeZb/JElpY/lP0ZpP4OQ/VUGejp4SYNkwFIH1Cbk5qSVAC4CSFAVLgJK0YuN4k4ADDSKTNmEeI41BidTG1wnZ3iAy43BGsNQYJElKPct/kqT0aeUXlv8UoUr5L889RqGqyNMBlgAVmfUJkzkJ0JO8JEWlwEza2BKYCnzaQCTpHWZxDh9mD+BrhpE5h9HG7ZQs1ihhAg4jdPpfRswA/mIMkiSlnuU/SVL6tPILAv6KvQBFYz4hwynwb6NQVRU4gzYA2nDQmWpvPUKmMImtaeaRpPzSnuglKdrFiSVASVqeFspM4rfkmIbbaWbNBsDjbgSsxAmNIEOOokCXMUiSlPrVneU/SVK6tPNLQs7DToCiMY+QbSha/lONFDiDVkIC2rEEqNpbjxw3J6kE6D8KSYp+ceJ2wJK0PM3cAVxmEJKkGHmBoZxjDJIkpZrlP0lS+lj+U7Qs/ykaRc4kJI/bASsay0qAX07CL2sBUJLqwRKgJC1fiX2AToOQJMVCyJGMcItySZJSfba3/CdJSptK+c9tfxWVeeQYbvlPkSlyJgFNWAJUNColwDa+Evdf1AKgJNWLJUBJer+xPAv82SAkSTHwAks52xgkSUoty3+SpPRp5Vc95b8Gw1AEKuW/Ju41CkUqz1mWABWh9SD+JUALgJJUT5YAJen9GjkcmGMQkqS6Cjia8U6llSQppSz/SZLSp5WRBJb/FJlXyDHM8p/qxhKgovUhYl4CtAAoSfVmCVCS3m00bwAtBiFJqqPZDOIsY5AkKZVCQsZa/pMkpUql/HcGfv6vaLwCbE0TDxmF6irPWYSMwRKgohHrEqALAEmKA0uAkvRuQzkDfPNAklQ3RzCSJcYgSVLqVMp/RVqNQpKUGu2MsvynCFXKfwUeNgrFQpGzLQEqQpUSYAcbx+0XcxEgSXFhCVCS3jaCEjn2MghJUh3MZqHT/yRJSiHLf5Kk9GlnFCEd+Lm/omH5T/FU5GwCRmMJUNH4EGVuoYNvxOmXciEgSXFiCVCS3tbEFOBKg5AkRSrkKCaw2CAkSUrZGd7ynyQpbSz/KVpzsfynOMtzDgG/AUqGoQgMpcyNcSoBuhiQpLixBChJ7zQB6DQGSVJE5rCIM4xBkqRUsfwnSUqfVkZb/lOE5lK2/KcEyHMhAbsA3YahCFRKgK18Mw6/jAsCSYojS4CStOzv4TPA6QYhSYpEwNFO/5MkKVUs/0mS0qeV0QS042f9ikal/NfMI0ahRKiUAHfFEqCiMZSAG+JQAnRRIElxZQlQkioGMxH4j0FIkmpsTs/0BEmSlA6W/yRJ6dPGGMt/ipDlPyVTngsJnQSoyAwlqP8kQBcGkhRnlgAlCUYyH2gxCElSjR1LgUXGIElSKlj+kySlTxtjgDb8jF/RmEvAVpb/lFhF/m4JUBFah4Abaed/6/ULuDiQpLizBChJMJRW8I0GSVLNvEzlQxRJkpR8lv8kSenTThOW/xSdlwnYijyPGoUSrcjfCfgNlgAVjXUIuaFeJUAXCJKUBJYAJWXdCEqE7GkQkqQaOc7pf5IkpYLlP0lS+rTTREgrfravaLxMwNaW/5QaeSZbAlSE6lYCdJEgSUlhCVBS1hW5GbjWICRJVfYfup3+J0lSClj+kySlT6X85+Q/ReVlQif/KYUsASpalRLgJL4V5Q91oSBJSVJgJg1sBcwwDEkZNQHoMgZJUhUdyzjeNAZJkhLN8p8kKX3aGNdT/gsMQxGYRYktKPKYUSiV8kwmZDegZBiKwDrkuI4OvhHVD7QAKElJM4bngS1wEqCkLCrwBDilSZJUNa/SaFFAkqSEs/wnSUqfdpqAU7D8p2jMImBLxvKkUSjVilxAwC44CVDRGEqZG+hg4yh+mAVASUoitwOWlGUlDgZeNQhJ0oCFHMdo3jAISZISfDa3/CdJSptWfkLI6Vj+UzTmEDKcPE8ZhTIhz4WE/ApLgIrGupS5kVY+W+sfZAFQkpLKEqCkrBrLPOBwg5AkDdCrDOJ0Y5AkKbEs/0mS0qeNLQn4O9BoGIrAS4Rs7ra/ypwiFxPwGywBKhrrEfAPJrFeLX+IBUBJSjJLgJKy6zRwOwJJ0gAEnOD0P0mSEsvynyQpfTr4FDAZGGIYisAccgynyHSjUCblmdwzCbDLMBSBz5DjMk6u3TneAqAkJZ0lQEnZ/NvXRcg+BiFJ6qdXaeBUY5AkKZEs/0mS0uc01qLMlcAHDUMReJEGNqOJx41CmVaZBGgJUFH5LoNrdx1rAVCS0sASoKRsXphdBdxgEJKkfjjR6X+SJCWS5T9JUjo1cg7wZYNQBF6kgS0Zw9NGIQF5LiHk11gCVBQCdqedplo8tAVASUoLS4CSsihkL6DbICRJfTCfwZxuDJIkJfAK0PKfJCmN2sgDOxmEIvCC5T9pOYpcTMgvsQSoaK5sT6KDjar9sBYAJSlN3i4BPmMYkjJyUfYYAWcYhCSp10JOYCTzDUKSpISdwS3/SZLS6Aw+A5xgEIrAC2D5T1qhIpcCOwKdhqEaW4Mykzmb1ar5oBYAJSltCsyk2xKgpAxp5GBggUFIknphAUM41RgkSUoUy3+SpHRqIUeJvwBrGYZqrFL+K/jZobRSBa6hMpHVEqBq7ct0sl81H9ACoCSl0ThesAQoKTNG8QpwhEFIklYp4ESn/0mSlCgh0Gz5T5KUSh9mLPBdg1CNWf6T+sISoKIS8Eda+WK1Hs4CoCSllSVASVkylD8D0w1CkrQSC+jmFGOQJCkxKuW/Am1GIUlKnUl8FG9qVu09T44tLP9JfVQpAf4SWGoYqqHBBLQRElTjwSwASlKaWQKUlBUjWErAHwxCkrQSJzGWecYgSVIiWP6TJKVbjiOADxiEamgmJbaiieeMQuqHApcTsiNOAlRtbUoHv6jO0kKSlG6WACVlRZ7LgJsMQpK0HK9T4s/GIElSIlj+kySlWyubALsahGpoJiW2ZCzPGoU0AEX+QWAJUDW/Aj6Kkxky0IexAChJWWAJUFJ2Fsm/B0oGIUl6jz87/U+SpIRc1Vn+kySlXcCx+Dm9amcGDWxu+U+qkjzXEvJz3A5YtbMhQxg70AdxYSFJWWEJUFIWFHmQgHMMQpL0Dq/TwEnGIElS7Fn+kySl3yS+BWxjEKqRmeTYijE8bxRSFRW5ioCfAksMQzXyB05k9YE8gAVAScoSS4CSsqDE/sDrBiFJ6nEKY3jNGCRJijXLf5KkbMhxgCGoRp4nxzCaeM4opBqoTALcEUuAqo31WZPdB7bEkCRliyVASWnXzFwCjjYISRLwJoP4szFIkhRrlv8kSdnQzpeAHxmEauBZYHPLf1KNFbkO2BnoNAzVwD5MpqG/32wBUJKyyBKgpLRbwon+jZMkEXIKo3jFICRJivHZ2vKfJCk7Z71mIDAIVdnz5Pg+BWYahRSBAtcQuh2wauJTzGf7/n6zBUBJyipLgJLSbDydBOxvEJKUaQsZzJ+MQZKk2LL8J0nKjjbWAH5jEKqyGZTd9leKXJHrCCwBqgbKFPr7rRYAJSnLLAFKSrM8kwmZZhCSlFlO/5MkKb4s/0mSsnbm+xWwjkGoip6mm81pZoZRSHWQ53oCfoYlQFVTwPacxsf7860WACUp6ywBSkqzkN8BZYOQpMxZSNnpf5IkxfZKzfKfJCl7fm0EqqIZlBnOOF4wCqmO8lwL/ARYbBiqkgYG8Yv+fKMFQEmSJUBJ6dXM/cB5BiFJmXMazcw1BkmSYqcMjLT8J0nKlLP4EAGbG4SqZDplNnXynxQTBW4AfoolQFVLyIj+fJsFQElShSVASWnVyP7AQoOQpMxYSJkTjEGSpNgpA6Mo8BejkCRlShc7A40GoSqYTpktaeYlo5BixBKgquubdPCpvn6TBUBJ0tssAUpKo9HMIuBYg5CkjAiZ5PQ/SZJix/KfJCnL16k/MARVgeU/Kc4K3EDodsCqioBy39cOFgAlSe9mCVBSGr3JccDzBiFJqbeEgBONQZKkWLH8J0nKrskMJmCYQWiAnrL8JyVAkRsJ2Q53pdJABQzv67dYAJQkvZ8lQElpM4HFBBxgEJKUcgGnU2C2QUiSFBuW/yRJ2Taf7wBrGYQG4EkaLf9JiVHkNgK3A9YAhWxJG4P68i0WACVJy2cJUFLaNHE+AXcYhCSl1hIaOMEYJEmKDct/kiSV2cwQNABP0chWjGaWUUgJkuemnkmAbxqG+ukD5Ni4L99gAVCStGKWACWlSUBIyN5AaBiSlEqtviEuSVJsWP6TJAkg4H8NQf1Umfznex1SMhW5jRw/wBKg+n9V/a2+fLkFQEnSylkClJQmBf4FXGAQkpQ6SyhzvDFIkhQLlv8kSXqbBUD1x5NO/pNSoIlplgAV1RrCAqAkadUsAUpKkxx/ABYahCSlSjvNvGQMkiTVneU/SZKWmcR6wIcNQn30ON0Ms/wnpUQT04AfA4sMQ320SV++2AKgJKl3LAFKSs/F1ovAiQYhSanRSZljjUGSpLqz/CdJ0js18nlDUB89CWzNOOYYhZQiBaYC2+IkQPXN5wgJevvFFgAlSb1nCVBSehwNvGAMkpQKHU7/kySp7iz/SZL0XiU+ZwjqgyeALSkw2yikFCpwO7A98IZhqJfW4qzeTxK2AChJ6htLgJLScaG1CDjIICQp8TrJcYwxSJJUV5b/JElanoBPGYJ66VFyDLP8J6VcgdsJ+BGw0DDUy6vt/+ntl1oAlCT1nSVASWkwm/OAewxCkhIs5Myerd0lSVJ9WP6TJGnFPmwE6oUngOE08bJRSBmQ51bKbIuTANUbJdbv7ZdaAJQk9Y8lQElJ10KZkN8BoWFIUiItpZFjjUGSpLqx/CdJ0sqtbwRahSfodttfKXOauYOy2wGrFwILgJKkKFgClJR0Re4CLjYISUqkMxnD88YgSVJdWP6TJGnVPmgEWomHGcTmjGOOUUgZ1Mwd5NgBeNMwtEIh6/X2Sy0ASpIGxhKgpKTL8QdgiUFIUqJ0UXb6nyRJdWL5T5Kk3lnTCLQCj9PNNoziFaOQMqyJaQRuB6yVCFi9t19qAVCSNHCWACUl+wLrOUL+ZBCSlChn0cwMY5AkKXKW/yRJ6r0hRqDleAic/CepR547CdgOeN0wNJC1hAVASVJ1jOMFYCvgWcOQlDgljgRmG4QkJUIXOY4xBiVA2QgSqdsIpJX+XbP8J0lS71kA1Hs9CGxNgf8YhaS35LmTMj/ASYB6r7CaEwBD3/RKqC4jkBS5AjPpZhhOApTnJCXNON4EDjYISUqAkHNo4jmDUAL4nloy/8Z43KTls/wnSVJ/VpfS2x4Evm/5T9JyNXMHIdviJEC9U45S7790VQI6TTSRPG6S6sPtgOU5SUk1m7OAew1CkmKtiwaOMgYlxFIjSCDfC60Ie/8GszLB8p8kz0nquw28sQJYYgTqYflP0qoVuYvQ7YD1rrVwr9cSuWo+mFxQShJgCVCek5RMLZQp83uDkKQYCzjX6X9K0Ot1niEkkscNIOd1nN5i+U+S5yT1RxcjLG/ie+OqeADLf5J6q8hd5NgK359QH9cSvZkA+KZ5JlDIQkOQVFfjeAHYCnjWMDwnGYISo5lbCLnMICQplkqUOcYYlKB18KuGkECBx63n9euH1QLLf5LiwXNSMjlVubKmcoKT7qfL8p+kPmriXnL8AFhgGJn3Rm+/sDcTAF82zwQKmGMIkuquwEy6GYaTAD0nSUlSmQLom5SSFD/nUmS6MShB6+BZhpBIvhdaef16U7jKhIy0/CcpBjwnJZM3hQPkXFtm3AN0MZw9vMlIUj808U9ybA28ZhgZ1ofP2XO9+AoXJsnkcZMUD24HLM9JSpqxPEvIKQYhSbFSIuBoY1DCPGUECRS6zTgAZeYaQsZfATCKIucahaQYXAl4Tkom3xOurC3NIbseoIvvW/6TNCBN3AsMxxKga4leyPXia2abaAI5bUlSnLxdAnQ7YM9JUjIMYiL42pWkGPkrectUSpgyjxtCAg32uhWABj+szvRfL7f9lRQngzwnJVLgcevhVPBsupcSW1n+k1QVBe6jzPbAfMPIoFw1JwAGTmxKpDJPG4KkWKmUAIfhJEDPSVISjOYNQg41CEmKhRIljjIGJU4jTxpC4sxipG+oA9DtzTCZvYJ3219JcVMppYcGkTChawkAAt8bz6D76WJbxjLPKCRVTTN3g9sBZ9Jipvf2S1ddAHyD6VTu+lOSltVruKCUFENuB5xNJaf1KKHWpQN42CAkqe7OZ6xFKiXQGF4DXjGIRHnQCHo0MxdYYBCZ4ra/kuJpJEuAFw0iYSy+LeN749lyPw1u+yupRiqTAL+PJcAsmc14Xu/tF6+6ADiBxcAL5pooL7IbC41BUixZAsyaBYzzbk8l1AhK5NjTICSprkqUOMIYlFihNxMk7Hg9YAjvMt0IMsNtfyXFnSUqj1kyreagnQy5h8Fs1XMjmCTVRjP3E7ItOGXU9dT75Xr1VSH3mWui3GsEkmLNEmCWuIZQsjUxhZCrDUKS6iTkQqf/KdECbjGERJlqBO/iB/fZUHLbX0mek1SDazmPGdAzsOVxg0i9+2hgO0Yy3ygk1VyRf1Nma3DaaAbWU/f05ctzvfyqe0w2UTxekuLv7RKgWwGkWcDdhqDEa2QvYKlBSFLkSgQcbgxKtJCbDCExlrCI243hXddz9xtC6pWB0W77K8lzkqpsKZ08agxv8T3ydLuPBoY7+U9SpJq5n4DvYwkw3XK1KAAG/MtkE3Uh5EJSUjJUSoBb4STANLOUruQbw9OETDIISYrc3ynwhDEo0eZwD7DAIBLhdiaw2Bjeoex7jKk/wm77K8lzkmoh4AHG02kQPUJfvyn2L3DbX0l1kucBYBvwb1CK11Q1KACW+Se4UEuIpXTxT2OQlBjjeIEcw3ASYBqFlJhmDEqFMocC/zEISYrwL2+Zo4xBiddCN3CrQSTCjUbwHgH/BroNIpVKWP6TlCTr8giw0CASwsLbe9dUtxhCKt1Lie0peMOXpDoqcB+B2wGn1AyaeK4v35Dr5YtmESF3mG8i3ME43jQGSYnSxIvk3A44he6nmbnGoFQYyzxCJhqEJEVmMs08YgxKiRuMIAHKFgDfp8AicMvFFCoRWv6TlDAjKAF3GURChNxuCO9aUz0BzDSIVLmXEsMZyzyjkFR3eR7o2Q7YIRbpcn1fvyHX668MfBMsETxOkpLKEmAa+UGn0mUOk4BHDUKSaq4MHGkMStEr+iKgyyBi7SmKPGAMXtdlQKX8V+Rco5CUQH7+lZTV72CmGINrqhS7i062svwnKVYqJcDhOAkwPfrR/ep9ATDkShNOgBJXGYKkxGriRbrZCnjGMFKgzNWGoFRpoZuQfQ1Ckmos5GIKPGwQSo1m5hLwD4OI9d+dswgIDWI5vNk4TSz/SUr6OckCVTLcyyheMYb3vX6vMIRUuItOtmM8rxuFpNjJ8wAhW+MkwDRYwpJaFgCLPAZuvxNzT7hFkqTEG8cL5BiGkwCT7gWK3GkMSp0i/wCuMwhJqpmQBo4wBqWQW23GVzeDOM8YVvhX+U6cIJAGJQJGWv6TlGhNPIjbqCbBNUaw3DXV9cBrBpFod1r+kxR7RR4kdDvgVKyn+nG+yfXx6yebc4wFXGAIklLB7YDTYLITNJRaOSbgNn6SVKvr2kto4iGDUOqEXA1OQonpsbmO0cwyiBUo0AVcZhCJVpn8l7foKinx1wohcJFBxFzOz5JXuKZyt70ku5NGy3+SEqLIg+TYHJhjGIld9/ZrPdW3AmCJvwFl046lkBznG4Ok1HA74GQr8zdDUIr/Pj0OtBuEJNXgurbM4cagVKqUqP5qELF0thGs8q+zH+Qnl9v+SkqXsuekmHuw530zLU/g+TihbqeR7RjNG0YhKTGaeJwc2+LNqEk0v+dG4j7rWwFwLM8CN5l3LBeNNzHGSVmSUsbtgJN6TrqbZu43CKVaAwfjth2SVG2XUeRBY1BqdfMnoNMgYuVp5jiJZZXmMBWckphAbvsrKX2K3AM8ZRCx5aCSlSkwFXjMIBIk4A4a+YHlP0mJVNllxUmASRPyFwos6s+35vrxw9pMPJY8LpLSujhxO2DPSVL8jOE1Qo4wCEmqmpAcRxqDUm0cLwB/MYgYCZhIC90GsQqVjM40iERx219JaT13hwR0GEQsLaXMOcawyitf11TJ+XtzBw1sb/lPUqIVeALYEphtGAmR6/9at+8FwMpdsTNMPVaeJ/RuZUkp5nbASfIKIRcagzIh4BS861ySquUKmrjXGJQBRwBLjSEWnmYWFxhDL3XTAZQMIhHc9ldSui3lbGCJQcRMwCU0M9cgVmEIZwGvG0Ts3UaX2/5KSokCT1BmG/A8nQA3kOfR/n5z3wuALXQTcJy5x8pxFOgyBkmp5nbASXFSf8cSSwm8aOoiYB+DkKQBC4HDjEEZWT/MBP5mEDHg9L++X5PDFQYRe277Kyn99uBVsMQfwzPQaYbQCyOZT8Akg4i122nkh4zjTaOQlBrNPAJsgZMA463MUQP59ly/vmsJZ/rCiI25LOQsY5CUCW4HHHevM5jTjUGZkudK4AaDkKQBCLmGAvcZhDLkCKDTGOrqSdbhfGPoozKHUyltK57c9ldSlv7iHQOUDSI2bqWZO4yhlwL+BCw2iFi6nW63/ZWUUgWeoOR2wDH2L5q5ZSAP0L8C4Hg6CTjG/GPhaCa4SJSUIW4HHGd/YiTzjUGZE7IXOD1GkvotN7A7G6XEKfAMcKxB1NXejHA72z5r5n4CbjKIWHLbX0nZMpYnCbjUIGIi8JquT5p4mdCJiTF8Hd/C6mzn5D9JqV9DhXwfeNkwYibkgIE+RG4AP/x0YLpHoa6eo9NJS5IyyO2A4+hlGjnBGJRJRR4j5GyDkKR+CLmePHcahDKnkyOApwyiLs6nwDXG0E8lDjWEGB4Vt/2VlEUBh+EUwDhc0/2TPNcbRB8N4QjgVYOIzet4Gl38iN1YaBiSUq/IY5TYAphlGLFxDUVuHuiD9L8AWKCLkP09DnX1B8a7ZYykjHI74Lg50LH4yrSQA4HXDUKS+qiBIwxBmVTZXWO8QURuAY3sYwwDUNnez4lL8eG2v5Kyq4mHgL8YRJ0Frq36pbKTzuEGEQtTCZz8JyljxvIkOb4PzDGMGFzXB/yhGg+UG9B3F7kY3PahTm4lz8XGICnTLAHGxb8Z6vQzZVwzc3ErP0nqq6k0Mc0YlFmVSSmXGESk9mW0d7gPWIl9gKUGEYMj4ba/krKukQPBiV11dAkFbjeGfprNqcADBlFXt9HNjymwyCgkZU4TjxM4CTAGTibPo9V4oNyAH6GBZmCxxyRSnUCRgNAoJLk4sQRYZ91AgRGUjEKZt5ATgecNQpJ67TAjUOblGId3W0cj4BZmc4ZBVMFYngX+bBB1VSJkd8t/kjKvUuw/yiDqYhEl9jWGAWihmzIF8L31OrmNbnZw8p+kTMvzFAFbYgmwXmbSzcHVerCBFwDH8DSOKI5WyOEUeMIgJKmHJcB6npNOosB9BiEBE1jcsxWwJGnV7qLAVGOQ1zK8TJlf4Yd+tfYyDfyGFspGUTUtwLPGUBfLJv/91SgkCRjKcVCdqSnqk0N7bgrQQDRzNwGnG0TkbmKh2/5KElApAZbYCphtGJEbW81zUa4qjzKbY4E7PTaRuIeAY4xBkt7DEmA9PMqi6t2VIKVCgb8B9xiEJK1CwKGGIPVo5hYCJ9fUUJmQXd36t+rr3kWEjDOIyDn5T5LeawRLe6aoWfSPzoPM5kRjqJJB7As8bBCRuZXV+SkT3OFQkt4ylicJ2QJ4yTAiEtBKgWuq+ZDVKQC20E03vwTmeZRq6k1CfkOBLqOQpOWwBBilJeT4tRfJ0vsW7CEhvwNCw5CkFbqXJm4wBukdZnEIIVMMoiYOosiNxlADRa4D2gwiMk7+k6QVaeYO4HiDiEQnIf9HC91GUSUjWUKZXwNLDKPGAm5kIduzGwsNQ5Led40/nZAtsQQYhccJ2bvaD5qr2iON4wUCivhhZy0XJU0UmW4QkrQSlgCjsidNPGQM0nIvku4CLjUISVrhtW0Lge8dSO/SQpmQ3YAXDaOqf2/+wWyONogaGsyeOLEmCsvKf07+k6QVOxD4lzHUWMg+FHnQIKqsmUeA3xtETd3Am/zEoQaStBJFphOwFZYAa2khOX5JgUXVfuBcVR8tz2QCjvV41cSx5LnQGCSpFywB1lbIORSc8iCtVIl9gU6DkKT3eYCm6m5tIKVGMy8RsB3usFEt/6aBX9LidoA1NZIlhOwKfpBa06sLt/2VpFUr0NVzTnrdMGrmKgqcagw1ew2fRkiHQdTEDSx0219J6pU8T/VMAvQm1eoLCRldqyE7uao/4iz2J+Rqj1sVBdzIUPY3CEnqA0uAtXInSykag7QKY3mWgNMMQpLeI+Qwp/9JK5HnUUJ+itt/DdTT5Pgho3nDKCJQ5EECdsWdYWqhRMBIt/2VpF6fk6YTMAIoGUbVPQns6vVcjS3lt8CdBlFFIdcz2Ml/ktTnNVWDJcAaOJIif6/Vg1e/ANhCmUH8GrjXY1cVDzGIEYzwYkWS+swSYLVNp8yOjHeqmdQrgzgM+I9BSNJbHmMOlxuDtApFbiPkl/jBdX/NosxwmnjZKCKU5xJ3hqm6Svkvz3lGIUl9OiddDxxsEFX1OiE/o8ACo6ix8XTSxY+Bxw2jCkKuZwg/ZaQ3WElSn43hacpsBswwjKqck/7G7NquUXM1edTK3bXbAU94FAfkGbrZlpHMNwpJ6idLgNXyEg0Mp5m5RiH1UmUNd5hBSFKPkIluxSn1UpErCNkD/DfTR/OA7Wj2zem6mMX+wEUGURWVbX8t/0lS/+Q5CjjLIKqikxw7UuQxo4jIHrxKmeHA84YxAJb/JGngmplBA8OwBDhQ1zCH3Wv93niuZo9c4D+U2d7FSb/NJMdwxjHHKCRpgN4uAT5lGP0yhxzDGeM5Xeqz2ZwOvkEqScB01uViY5D6oEgrsCvQZRi9vG4J2IoCDxtFnbRQZii7EHK9YQyI2/5K0kAFhAwlD1xiGAM8J8GuNDHFKCLWzEtUhu3MNox+uYql/MTynyRVwRiep8TWWALsn5ApwAha6K71j8rV9NErd9tujlOX+moGJbakieeMQpKqpIkXe8YU+2FQ38wh4Ps0ueWA1C8tdBOyv0FIyryAwxjhdqZSnxU4n4CfgR9crcKzNLAZeR4wijobwVIG8XNC/mkY/eLkP0mq3jmpxGB2AW42jH4pE1Kg4HTfOl4LPEGO74GfF/fRRcBOjKfTKCSpSsbyLN1sDkw3jD65jkX8kAKLovhhuZr/hAIzKTMMLA700hPk2IyxPGsUklRlzcxlEFsD9xlGr8wANiXPo0YhDUCRK4CbDEJShj3DLC4wBqmf8lzds8vGG4axXPdS5juM8Qbk2BjNGwxiG0KmGUafdBGwi5P/JKmKRrKEhfwIuM4w+qQEjKLImUZRZ008R46tcdhO7wScy2x+TcEp6pJUdeN4gUaGAY8YRi+EXEYnP2UCi6P6kblIfkozL1Hie8BUj/JKFyV3AJvRxIuGIUk1MopXWJ3NgasMY6XnpLvJ8f8o8IxhSFVZ6P8eKBuEpIyuK46MYosDKdWauYUyW+D0j/e6lka2pJm5RhEzo3mDNdgeb4TprSUE7EyeC41CkqpsAovp5KcEXGEYvdJFyK4U+ItRxEQTz9HAt4HbDGOFQgKOoYndff9Bkmp6rT+Lbr4DXGMYK3Uyc9g56mm0uch+0ljmMZTtwAXjcgWcyzpsRYH/GIYk1dhuLGQoOwKnGsZyXUrIljTxslFIVVLkQULONQhJGTSTdZxkJFVFM/fTyVeByw2DEnAos/kho52MGOtr79lsD7QZxkq9So5tyHOlUUhSjYynk3XYiYBTDGOl3iDgJxSd4B47Y3iNwWxL4LFZjiWE7E6ePxIQGock1dg43gR2BNoN4326CBhHgd/REv1QkKAuT7mV3QhoBVb3+NNNyIEUOcYoJKku56Rdes5JaxoGJeBwZjOxHosSKfXO5CN085R/byRlSkgzRVoNQqrqv6uANvYl4EiivLk3Pl4BdqHADb4YEvSa7eAgQlqo1/vR8fUksIPT9yUpQm3sBRwHNBjGu8wg4IfkedQoYv8azgOnAIMNg5nACAr8yygkqQ4q3a/T8XMvgJco8wuauaNev0BQxxfCNwmYDHwq44vpEeS5x38LklRHk/gyOS4CvpDhFGYR8iuKbiMg1VQbLcAhBiEpI2YzmE8zkiVGIdVAK9sRcAbw0cw854BbCPk1BWb7Akigdn5IyF+AdQ0DCLiCQezOSOYbhiRFbBLDyHEBsIFhACFTaODX7giTqNfwt8hxIdn+nP1SBjPatZQk1VkHG1Pm72T5c/aQ6xnMrozilXr+GvW7S7jIv4EvE3AMZHLK0Hk0srHlP0mKgWYeYTBf6zknlTKYwEV0sbHlPykCCzkGeMEgJGVCyFGW/6QaKnIdnXwROJn0v7c2n4A9mcXWlv8SLM/V5Pgm8O+MJ7EU2IsmdvQDa0mqk2Zuocw3CZmW8SRKwIHMYbjlv8S9hu8mu5+zLwAKFNjJtZQkxUATD2X4c/ZFBOxJge3rXf6DuGy50MY2QCvZuEthBgFF8lzvXwJJiqEONqNMB/D5DDzbl4A9KHC5B16KUCsjCTjLICSl3Mss5FNMYLFRSBFoY1OggzTebR1yNSFFmnnJA50SLTSyAXsTMJHsbV33MLA7Be7zhSBJsTgn5fgwY4A/AWtk7Nk/Q46RNGW+BJl8rQzv2X7xM6l/riGXMYg9GM0sD7wkxVDl/alW4EsZOCddTwPNNPFcXH6lIDbhTGYw82km5HBgrRQe/sUEnEwXhzOON/2XL0mxXpwMImAsIROBD6TwGXYBk+jkIMbzugdciljlzeW7gW8YhqQU+z0FTjAGKUInsjprsDcBvwfWTsEzehIYT4EbPLipvfb+OnAWsEkGnu1SQo4m4HAKdHnwJSlm2vkSIWcC387As+0m5CSGcJAT21O1rlr2mcZhwH+l8BlOJ2RPivzDgy1JMddCIx9hHCGHko73p97rRUIOoMi5cfvFgthFdQafpMShwC5AQwoOfomAv1HiEJqZ4b92SUqQM/kI3RwMjAIGpeAZlYGLCDiYPE95gKU6msQwckw1CEkp9SrdbOjNb1KdnMG6lBgPTCCZH/49BxzNbM6ihW4PaMq1kGMDdiHgBOCDKX2WNxMyniKPecAlKcZCAtrYlYBjgfVT+ixvBX5LgYc94Ck1iY+S4yDS85nGLOBIoN2bKCQpceek9QjYn4ACsFoKntErwDEM5rS43kQRxDa60/k8DRwM/IJkFgFLBEwmZCIFnvBftyQlWAefosxBVMrpSbxoLhNyBQGH+OaOFCNtXAH82CAkpdB+FDjaGKQ6O40NGMT+hIwBVk/AbzydgMNYh/MZQckDmLm18QcJOJiQPDAkJc/qIQIOIM/VHmBJSpCzWYel7A+MIz3bAj9ByEEUudgDnBGVzzQOBH6T0LXVS8AJLKSVCSz2gEpSgk3ioz1FwJEk4/2p95pLwEl0cUrcb3gPYh9lZfpSHvgtsG4CDv4bwAUEnOB0JUlKmdPYgEaKVN78ScJkgiXAReQ4iiYe9wBKMVO54eVh0nE3riQtMx/YkAILjEKKzZpjKA3sChSAL8bstysRci1wNutyhcU/cRofp5EDgJHA4IQ+i8cIOJRZXEwLZQ+qJCX2nLQBjewH5Enu1JqnCTmMdfmb66yMqkxfGknAeOAjCfiN7wdaGcy5blEtSSnTxtoE7E7I3sDHE/AbP0XA6bxJe1LK6EFiXgynsRaD2JmQ3YHNY/a7h8A0Qs5hEBczmjf81ytJKXYiq7MGO5FjN0K2BnIx+w3vBM5lMH9nJPM9YFKMtXMyIb81CEmpEXAIeSYahBRTHWxGiQIBPwHWquNv8iQhZzOI8xjNLA+MlvNaXZ8yzSTnBjwIuIOQPzOUSy1ZSFKKnMWHWMooAvYAPpaQ3/peQk5mDufTQrcHUUxmMK+xLQG7Aj8hXjdazAMuAs6jwO0eLElK/TmpgflsSchuwE7Ea+LyfOAqAs6liZsJCJMUbZDIF8QkNiTgZwT8GNiU+mwRXAJuB66izCU0M8N/qZKUQR18jBI79pyTtqA+k7zKwD8JuRK4lCLTPTBSQlQm8jxNMiZdS9KqvE6JDRnLPKOQYu5khjCYzYEdCPgB8Nka/8QlwB2E3EjAjRS4z4OgXon/DXizgb8Scg5FHvOASVKKTWYw8/lpz4fV2wKNMfsN5xJyATnOIc8DHjCtUBsfJORHwI8I2AZYsw6/xUzgKuBKYCoFujwwkpRBpzOUHDv0fM6+LfCBOl3XV85JndzEeDqTGmeQ+BfEqfw3jWxJwGZUihdfoTZvBJWBhwm4jTK30c1U9uBV/0VKkt5yNuuwlGFUJtVuDnyV2pTUQ+AxQm4lxzRKTKGZuR4AKaHa2Bs43iAkJV7A4eQ5yCCkBGrls8DmBGxM5b21TRjYDQovAw8C9wFTWci0pGyXohjr4GOU+TkBPyZkU+pXvHgJuJqAy1iHm5z2J0kZVNkeeOeec9IW1G+a2ssEXA1cTsj1lqjUZ2ezGl18G9iCkM2A/wXWrsFPep6AOwmZRsBt5HnU8CVJ7zKZwczjW1Q+Y98M+DYwtAY/6UXgLkKm0cCtjOHhpE36W5EgdS+KNtYg4EuEbAJ8kZANCfgElbHc/83K3xjqBl4FXiRkJgEzgMco8xBr8ii7sdB/dZKkPl08d/MlSmxMwJeADYFPAB/vOSetbFpgqeec9BIBMykzg4DHCHmYQTzidvNSipzMEFZjM4OQlHhLuJvxvG4QUkpM4qM0sBFlPkLABgSsS8ha77qOCegk5DVCXiXHy5R5lm6e86ZZ1dwZrEs3w99xU/gXqd10wPmE3E7AbYRMpcC9aflwQJJUBW2sTcD3Cd+6Kfwr1G7nsteBOwiYRsBUXuJuWih7EFTlddYn6WZjAr5A5fOMTwIfpVLCWKfnv3d2DDqBBT3/vUJlut9MYAY5HqGRhxnJfIOVJPVZZSe+jQnYqOectCHwESo3rQ6lUlp/53sBS99zTnqx55z0HGUeZRAPMYbX0hpXkLkXyLmsSRdr08lqb/2/ISxhEAss+EmSItXGGsDalFj9HWfmTsosYBxvGpAkSZIkSb26vl6bHBsT8hXgK4Rv3YC3IbBGLx4hpLLtz/PATEKeBB4GHmQOz1iukCT12pn8FyW+QshXCNmYHBu+47y0Vi8fZTZvl6ieIuAhQh5iKNOdPCtJkqTlCYxAkiRJkiRJkpRKy26+g7XJseZb/7+bMiELgHnMZYElP0lSzZ3I6gxhbQLWZtA7yoBlQkrMZzDz+QALLPlJkiSpr/4/OOYysJbNrogAAAAldEVYdGRhdGU6Y3JlYXRlADIwMTctMDctMDhUMDY6NTY6NTUrMDA6MDDg+VeQAAAAJXRFWHRkYXRlOm1vZGlmeQAyMDE3LTA3LTA4VDA2OjU2OjU1KzAwOjAwkaTvLAAAAABJRU5ErkJggg==;" vertex="1" parent="HrEDQ9N7DH2wASdigxI--13">
          <mxGeometry x="20" y="143" width="225.32" height="47" as="geometry" />
        </mxCell>
        <mxCell id="HrEDQ9N7DH2wASdigxI--21" value="" style="shape=image;html=1;verticalAlign=top;verticalLabelPosition=bottom;labelBackgroundColor=#ffffff;imageAspect=0;aspect=fixed;image=https://cdn4.iconfinder.com/data/icons/scripting-and-programming-languages/158/Ruby_on_Rails_2-128.png;fillColor=none;" vertex="1" parent="HrEDQ9N7DH2wASdigxI--13">
          <mxGeometry x="430" y="105.75" width="121.5" height="121.5" as="geometry" />
        </mxCell>
        <mxCell id="HrEDQ9N7DH2wASdigxI--23" value="" style="shape=image;verticalLabelPosition=bottom;labelBackgroundColor=default;verticalAlign=top;aspect=fixed;imageAspect=0;image=data:image/png,iVBORw0KGgoAAAANSUhEUgAAAQAAAAEACAYAAABccqhmAAAAAXNSR0IArs4c6QAAIABJREFUeF7tXU+IZEla/yIzu1pQ3O6TBw/TDQrC0Fk1KmJlC1O9rLCI0t27nSULQnchiIgyNbB48NI1J4U9dPdBPKh0DR6Eyoau9rIIDl0Ns1l7cOnMHL061epBvEwVgjIzlRkSL19WZ2VlvvgiXkS8yPd+dZrpjPgi4vdF/F7E9ydCEP6AABCoLAKisiPHwIEAECAQACYBEKgwAiCACisfQwcCIADMASBQYQRAABVWPoYOBEAAmANAoMIIgAAqrHwMHQiAADAHgECFEQABVFj5GDoQAAFgDgCBCiMAAqiw8jF0IAACwBwAAhVGAARQYeVj6EAABIA5AAQqjAAIoMLKx9CBAAgAcwAIVBgBEECFlY+hAwEQAOYAEKgwAiCACisfQwcCIADMASBQYQRAABVWPoYOBEAAmANAoMIIgAAqrHwMHQiAADAHgECFEQABVFj5GDoQAAFgDgCBCiMAAqiw8jF0IAACwBwAAhVGAARQYeVj6EAABIA5AAQqjAAIoMLKx9CBAAgAcwAIFIDAr//962uiXn/n8qVh/+Due8cFdCFpEgRQFPJot3IIqEVfu1R/SJLuENGVKQCOJdGuPB0++fH33jsKCQwIICTaaKuyCLT2Bg9I0FMtAJK2upvNXW05RwVAAI6AhBggsAiB9U5/W5B4xEYoIAmAANhaQUFbBCbn3VpNXhuN1NZX9Io++9qOxbQe+8s/K1jW3+tuvtszbc+0PAjAFDGUZyNw81n//kiKB4JoY24lSfs1IZ582r5xwBa6RAWtF/94jC+67aayFXj9AwF4hbeawhNjV6P2nEissRCQtL9yabhVpDWc1U+DQjkXf9LS6HR43bdREARgoFQU1SPQ2vvXNRLDlzNWbn1Fkr2VxuhWGUjAHoPzMNVI3PK9OwIBMKYmivAQ2Hj++spXp/XPzRf/RL7sddur7/Fai7OUq8WvRidJfnjYXn3sc6QgAJ/oVkx2q9N/zd72L8RGftRtr+4sI3QuF39CAILuHt5r7vvEAgTgE90KyTZ2dS3G5nilMby+bEeBZPczrL8mSdecqT2AJwAE4Exb1RU0NvrVX9tv/c9jF2Lr61Jb46NP7WX+3c90r+SbbnvVHZksGDAIwOVMqKis9c7g5UJXnw0mgo6695rXbaqGruNn8asgffGke+/Gtu/xgAB8I1xy+UbuLiGekJTqq3ZbB0sIC7iuD5zfLcjvFRG9r5MdwgWo+gAC0GkCvy9EwMzq/9a41+r0j4jEO1nQSqKPD9vNBzHD33o2eEqS+H2UtCUF3Wfsll512835wVOOAQEBOAa0SuJae4PnJJLMNs3f+fNsq9PfIRIPdbVWGsOrsRoDbRb/aDg8qDUSN2n2H3IBdAjh96IRWH82uCMkPef0Y3Y7nxoNtQshVmOg6eKf7GaYxHey0hheC0V82AFwZjDKnEPAyOW1wJjV6gyUf1tjC4gvMMjI5pEE87w9yrSeDT7XuQlDH31AAFjcxgi0nn32mKT8QF9RvllpjNbmfc3YO4gAvnD9OMYl8iz+WMcLAuBqH+USBH6j89nGiKSK9df+6SLZlskYaLr4SVK/u9k8S4Za7wx2BdF9zeE/iO9/ug8gAO00RoFpBDjb2LS8Np2VeSYuPDIwDfFVgU68P0n9lUvDjcnOJ/WWfKGrXITNAwSg0wp+P0OAuWBVeZYhi2sMpIBW8Vl1G8f3zyx+JY8bJl2E1wMEgAXOQsDoK2iwYGM2Bhovfppv82AmSWl3TCxFGRYCARgCVtXizEms4DEKYmGfrQMbA82CnJJZcUKyvjF7jReXOHX2El/zDgTgC9kSyeVuYdUiGJ0O10xvsWl1Bupe/G9kQRbSPWYR3z938Y+3/3Ea/yZYgwBKtFB9DMUk08/WiMV0KwYxBrpc/Eofrc5AGf+m3wC4qKZAiT/z5gcIwMeqKZFMdrLLjNvLBIJYjIEWi19F+iy8x597vAmV+AMCMJmVKGsW+JLzjN7qDNTNwJlZcpLo4LDdvOVLNaYhvkTZtxcxydPIZuJ67NgBuEa0JPLMjGD5r/Eq+mtpvvhTRQtST3kdCJIHw69Hryb2j1h2NbrpCALQIVTR320z/fLAxTEG+rgow3rxz99TJ4RA6gEUfaYkK14iD6a6uiAAHUIV/J0dt05ELi/u4BoDu+3mVVdqMfBwuGryTE5Iz8aizoMAnKt1uQW6yPSzRSD0tpl77LAdj7ZeTruJVj6jAAiAAVKVijC/wirRdWGmXx68WnuDHglazZLhwhhosfhfjU6HD2r1+oYUtCFIbuhuNcrGIcylnzpdgAB0CFXod5eZfrawsRemoN3uveaWTTsm40zkz4nvV/+c7FgsCcE2ZsJmvFl1QACuEV1ieS4z/WxhSL0PypCWGRk4lm/+nJhxfP+CxT9vfMkryI36jj7tl6iIxJ95fQYB2M7UktVznemXBx5e+OykBdkj2djiPKXtc/FPesPMmSgk8QcEkGdWlrguN2El3Q4vjHxzBZFRf8aNHpOs38oiAePFvyC5J2uM3H4XlfgDAnA1Q0smh/nVUqMOFrXGMQZeUMOCsFyLEN+FyT1ZquftXOIw/k3GgSNAyRYzdzjJebVeuy2EutdenF1dlVHfKtOP25/ZcunXVIUHM2wBb2tLKbcPN1efTP7FYvGrizwPBNHjbrv5wqT/sSf+YAdgos0SllWL4eth7bYciTuMKLVzCBRhtU4W79f1A51b8IKqUg+BzeKfs6vYFzW5f6k+epF1VTfXe1Fk4g8IoISLWjeksy89iQ3TRX8mO0emn65/ut9Tr8Cu/grx85KSr7ikY+sxz+mYkklS7svh6MXsnQe8m43CHaF0uOIIwEVoCcut7w3eVxM/DVbhbO+zRxlBxBrvfB1SWbJHVNsnWXsxGn51HNuLP1wkYAPgIhVxuZmvvHpTLvsCCqOx5M/0M2ouo7DHuH111leYaR/tXNA9daORDvPCE39wBHA1EyOQ0+oMbkuiDaEyziR5ekc+Lou1gj09az82NQ4uUtl0Qk5qc5jYR7QvGJtMgxgSf0AAJhqLrKyTs7zhmFxm+hk2nVnc1kMwK1S3KFVWJEl1lEoeQDXyRlwYQATHKBCAy1kYQJaFq85drwq8p44ziIQEaLhr7CF4K9woGi/JH0h2W6M75klA8e2kYATkzLICypy56iRtM/3zHnrpJ9PPdUet3YQG8f3z+jzegZzeIZm4UzMzF1X9IlyoXKxhBOQi5blckll2qf5QbTkZBiWvvYkpVJUzUFMPgStfPNf3H0viD44AnNkUuMzUwn8QuOlFzRltjSPpMxkkM6kua3MHOONihlBHjSd2ABxNeyrT6nz2kEhue//iS+pLQT1GmmqUriou/NwvcirvWAraOrzX3OfKny63jIk/2AHYaNpDnfQM+dTjGf8kuZhS0v5oODxQUWusSz4N3vTzAIsTkellH2pR86z2lmPm3ZwUr/EPRkAn081cSPqVeuT8qy+pT0Lu16h28Gn7hkqiOftjXvIZLNPPHDWzGinB7rOt9Ra3Cy1j4g92AGbzyHnpdMu/40jwiSTaJ0H7l+vDg0WJKsxLPoNm+jkaf6YYYw+BoN2V+vDDrISfSYPco4YrY6NPvGAD8InulGw3d8/LNyRq+zSq7XJuwFHNc7aqMbup8qjHPJGId8XYsib+YAeQZzblqJszhv2EhNg1WfSTrrIuvyww0y8HpEZVjdyE6qWfUf3uIoINfXW50UAtCmMHYAGaSRXudvGiTPmGpNjpbjZVKqzVH+uSz0hDVK0GnFHJUA8L3YRMd+PSeFNAAK5n2pQ8s/f1JhXlGynEtq176uyc2unvEImH2cOLJ9PPoxrORBsnEs3xEHBIVZdjEGKs3DZAAFykLMqxXG/n5LpZkDwfdfwuKgvItVXME4nETrd94yMlmHWkUgWXaFcFAtBOGbsC7MkyFm91CeWinnEi1GLN9LND26xW+qCH8qBo4/gTyambkGdLWC5iBQGYzR12aaaleOGrM+yGZgqyDI6RZ/rZjt2kXno8UwFDrEtA0otC1WUrmX/L5lEBAeg0avE721JM5NT/nrb7OjvIaDky/Sxgt6rC+6rzRcec+DNvFCAAvm7ZJZmWYqdPa6vOrXcGLwVR5ldq2TL92KDnKMjVF6OJqBN/QAAMDboowtn+u7YUM91cSzdBXeiDI4OJX/b2X9DdvN4bTl9dlsEOwCWaqSxWnLhDSzHT3bg0vmkPKmGJNPcQTItdLuPfpOcgANbUMCvU6gykxlT0pttedXaRJ8vdaJn1Zjby5S9tnEiUDlkZCQ/bzVvLhgAIwLHGeD54dw9EVC3Tz7G65oozTiR6+znd7d5rboXoo6s2QACukEzlMP3/TlJvq5rp51hlC0ngy9P6Y8YlKjP1eQlFIcbAaQMEwEHJoExIAqhypp+BSnIVtXMTyh7JxhY3YzNXB3NWBgHkBHC2emqQ+0IjNvcOgEU0Fcj0c6y+ueIsPQRO7h30PT4QgAeE9UZAom67mQt7TlLKMsWke1CDU5GprUVlZvKuGhu3fkySPsyT0el0EHOE5ZqEvju3rPJbnf6R7jqqPLfF8AJX3CQWLasOfPTb1k0opdw+3Fx94qNPeWWCAPIiOKd+qzNQd/JlxpjbRuTxvAzL6ZP2oArnIsvmIQABOJ8ixLyj3u4LjUw/DwozFGmaSHQmXtL+yqXhFufeQcMuWRcHAVhDt7iiL988Mv08KCuHSFsPwUpjdCsWEgAB5JgAi6oyswGPu+3mVW7zyPTjIhW2HIuUL3YpGg8BCMDTfGl1Bsc6i7GJIRCZfp4U5UCsrZuwRuLu7BsODrpjJAIEYAQXvzDHEMi9lYc5wZDpx1eP85K2HgIqOEcDBOB8KowFslx1DOUj08+TgjyITUiAhrvsq8bSPkiix4ft5oceuqQVCQLQQmRXgEUApPcEINNvPv7rez/5hSs/87P/8cPf+sUv7TTkp1YeNyH3ZSKXPQcBuERzSpYLAmCF+5K7zEJPUDgT23rW/66Q4ncl0XeJqDYWLD4lGu6vNOTfxmJZVySwLIlEIABn0/O8IA4BZF0giUy/t3iud3q/LWTtIxL0y1nqEiT+7EftG3/uSaXGYjnJWheFhk0kAgEYq5VXgXMtWJYRkDN5lu0GWh5y50utd/rfFyR+wK4rxD927934Nru854JMA+5sL4K5CUEAHiYA03C38AEJ1ta/Apl+N5/13pWy9i+mKhJS/umPNlf5pGHagGH5VJ/qCnKTRCJ1ZfyW70QiEIChMjnFOV9v9RhIt928Mk8eJ9y3Cpl+rc7g74jo9ziYz5b58qe++umf/M6v/q9NXR91bN2EvhOJQACOtc0MA1atzvXbc2wHxPAeOB5WcHHre72fF6L2n7YNS0F/fHiv+Ze29X3Uy+Mh8HXVGAjAoabTxf80+2GOcYPzsgGR6fdWGTefffaHUsq/slWPkPRPP9ps/qZtfV/10uOhulfgtkkb6tLRy43hXdeeDhCAiRYWlG11BrdJ0gMSdIcnbn66Lifclxs9yOtHvKXybP8no8p76YpPdGJJJAIBLNBy4sv9ur4qBF0hEmvTxSTJ5PUdQfLCb5xJM+/rz0oqqdCbfq1O/xMi8U0OngvL1OXPdb+z+t+5ZHiszNL5xfadeghAACnAasF/PazdliQ2SCZf8rkGOgfz4cJ9gMj0u4jqzU7/B5LE93PgbZRtmaOdXFVTN+FjQw/BsRS05eIVosoTQLL4LtUfel70k0ky9zFQztbf9gahXLOzwMrre/1vCyF+mKMLf91tN/8gR/1gVW09BC7chJUmgFbns4dEctvj1/78JJrzHBjTa1DJTL/1zuDfBNF1m5UoSX7rsL36iU3dIurYJhKRoFyPkVSSANJY7ee6l3SdToQ5QR3MgKHKvulneUZWPpZPuu3VbznVXwBhedyEtolElSOAhGlrw+ckydnbfJq5cUKyvjHvkQhk+ulX1Xpn8M+C6Ff0JadK1KnV/U7z0KhORIVDeggqRQDjL27t5axV35fu1RPg8nS48+PvvXc02wYr3LdCmX6LdLC+N7ghhPgbIvlrDD2pR1l/v9tuqliMpf5jRpOeH6OgIxrV75q8SFQpAmCF2DqYNmrh10nsLrruCZl+5iC3Ov0/IhJ/QkS/NLe2EE9WRrW/ONh897/MpcdZI0QiUWUIgBdiaz0RXkmiIyHpYOXScF8XrcVh9ypk+tmgvb43UO8tfFMIWpOS/r1G4tMR/c8/HG62/s9GXux1fCcSVYIAmLf0zpsLr4ikeuRDxe4e1YQ4t5W3udCRtfWvQKZf7Asvpv6N3YSn+7rXpi72Wex02zc+yhpLJQiA42d/C5J8Q1Ls+ErDZB1D5rgLY5qQ6Et4BPJ4CLISiUpPAEZff8+htrxjiP6ewPDTDy3GgIBtIlFWrEDpCYBz3k52+EQfH7abD3wpGpl+vpCtnlxLN+FH3fbqzixa5SeAzuALbaRfgDM35xhSlUy/6i1Z9yO28RDMCycvNQGwt/+ez9ysiDbPxw/3UxASi0bAIpHoeKUxvD7tpSo1ATBZ8kJ2nkvFItPPJZqQNYuAcSKRpP3uZvPuRE65CaDT3yESD7OnjV+jG2frX7VMPyxjtwgkH5l6fZ/7ItH0UbPyBODz3I1MP7cTHdIWI5B6CFScivbmYXW92GG7eUtJAwGQuGUT0KObjMj00yGE310jYHQcSO1eIABPBIBMP9fTG/I4CDB3nWdu78oTgI+Ye1a4LzL9OPMZZSwQ4DxNT0TJlWmVJwDXd+wj089ixqKKUwRM3N+lJoAivsScyEMfuw6nMwjClh6B1t6gp/MKqHlYagJgMqGz22NZhBMg6nDpZy8GkBsBTvCZCn8vNQEoFFudwbHONTI6HV6fd2uPqRaQ6WeKGMr7QoD1MSJ6VQUCUPn86hKJhX8uAnGQ6edrKkOuLQKtzkBdkZb5VwEC8B8NiEw/3TTD70UgAAIgIqZfNNe9+5xwX58Rh0VMLrQZPwItRiZs6XcATEOgdUIQx9hCyPSLf7WUsIfYAaRK5QBh85IsMv1KuGpKNCTGvC+/EZDrCbAhAM7W34WBsURzEkMJhAC8AFNAc0IjTQkghG0h0FxBMyVEgOWVEuJJ6W0A6Q5Aey2YCQEg06+EK6ZkQ2o9G3yue/5O7U5LTwDpYlUEkPV30m03r3DnADL9uEihXBEIMHenpALgSk8ALCu9QWYe92zVbTc3ilA+2gQCrIhUkm+67dVrpSYA5lZdXQo+98rk2amETD8srtgRYJ39k2vw5YeH7dXHpSYAjpU+USjzVmBk+sU+/avdP15EaoLRyUpjeE3dDlxKAkifUXpKgu7op8R4K6Qrx9r6I9NPByN+94QAc3c6/t5NPYJTKgIYB+Y07hPJbe1jIKkiuLn5rHMVcyfhaQ5AbIURYBmmx/icjE6Ha5Ps16UgAPUktBB0hUisnelYyGtS0tmXWxBZGN3km5XGaE37nHcE14tXeG5j6BoEmIbu9Os/PvtPREZJAOosI8XwviC5cW7RO54KnAQd3rmKd4xw3H2IAwLEm59n291+d7P59iMa27XgN5/170sSO7oABid6ZybocAyJHCJx0mcIAQJTCJic+9XWn2R9o7v5bm8axCh2AOkX/5HdNt5qTrCy/1hbKyaRWPUSlYBABgIG535l+dvqbjZ3Z8UVTgDp+32PuEa73DNCUn/l0nBDd+5Hpl9upCHAIwKsj9PZzp8+Pmw3H8zrTqEEYDIIF1hOuz908jhbf2T66VDE7z4QMD33Z33wCiMA5su9jvCTb0iKnXlboHkNMGOpc90i5GhgEFMxBFyc+wu3ATAXmAPVyjeS6PHlxmhXt+WfNMYMHz6LpHLQSYhgIKCOZKJRf0pEvZqQPTlq9GcNWgwxS1/Exbm/UAIwZDAzhUnqk6AjSfJAyMaBzQRhAbzAoGLWWZQ2QWBRjLt66bYqpGByZOYed4MfATjx9BcmhqS+FNQTJI9IiqOaEOoZ5LM/V6/7ssJ9DTIHTSY4ymYjwMlvn0goIym4PPcXtgMwGkQasyxPhzsuHu3QLTDmzuRcGKVOJn53g4CLI+MykwJzbk7AnuvvX6SJoDuA9c5gVxDdZ0wLo0Ew5GmLcHYm3LwBbWMoYIRAqzPYJ6LbRpUYhZeFFFjH0rfbn7n+/sIJgGlcU/0MvvhZW39k+jGWlPsizGvdnTUcGym0ng2ekqS5PvzZQXPP/YUcAbjbuCJ868j0c7Z+nAsyMXw5bzwVOE0Ko5E4OtxsvvLV1rRck8VPzAC32X4HOwJwtthUgIGNd4MK78agEJOiam2YGP/CYiN7JERPjmSPSPRcksLYVnb61CARznrXHI4AOoMgj3SaTAKeURKZfiaYuizLOpq5bDC3rHykMHWfxY5RV3K4pUMSgPalUpOruY0AWlCYE+6LTD8XSNvJMDAa2zUQpNZ5Urh8adifBKUlwU31+ju1WnK3xbbBF/+s5zbn/kJsAPpnisJ+aVlnS2T6BVki8xphXudO6t1FkqPj8eKRa0TincI6Hbphy3N/pARArBRdFxgj088Fin5lsAiaiFYaw6vTYd6KOE5PG2sjGqWXyZSVFHi3Wem0FNMR4Ljbbl7VddjF75ytfxHeCBdjK4sMpvGPlZBVOlJw8OWfzJOYCIBC2ACY7kjWxCrLYottHFzjXx6SniYFSeKakLRGglZjw+JCfxwufiU7HAHsDXo6gNVTRT7DfpnBSMj0K3gV8Ix/fmxGinyGNFK2hLXoSMGDTSocAUTgBmSFVOZwqRS8bkrRPNv4x3zNyQUohZOCpH5NiG1XSW8FGQH7O0TiYbZC/AXcMLeVwQyRLiZmGWVwjX++d4s6bMOQgtlFNro+z/s92A6Aefb2sgCZ2VTI9LOZQY7rsMKyiaK00TgihRNJtF8nsevjiz+rrmAEwEzq8OIJ4IQhI9PP8Uq2EMeLzCTKY/yz6FauKhNSEJQ8bDN+vEaq/04scMfj/6UjItmrU60XYtEXcgRQjbY6AzXgb2Qh6nprx9r6I9Mv1yR3VblI45+rMSybnGA7gJQAtPkArkNvWVtKvOlX+LxlemjYT7kXPqAl6UBgAtAbAl1uxZHptySzUO0O9wYPSJC69DPzz/UOUdde2X+PjgDIkXuHd57040su+6TxMT7WTi1S458PPELJDEoArPO4IwLghPu6Pm6EUlrZ2uGRdWItM7ruqmw4+RhPKQmA5Uv2EFXlQ0FVkMkz/tFJt90cW8/x5wyBoATAiwXIFwyETD9ncyOIILbxD4TtRR9BCYDjj89rA+Bs/ZfJj+xF6xEJhfGvWGUEJoDB5yTpWtaQ8yxO3g4jziiyYqdBca0zjX9eIkSLG3U8LQcjAJ5L7uIFD1yomFtJZPpxAQ1QjhkdCuOfR10EIQADK2+/u9lcsxkvMv1sUCu2Du9ICOOfTy15J4B08b+kJBZa82fp5uG5F8NdOaYbJn4fI9DqDL7QzgsY/7xOF68EkBp4HmmVPB6i1fYcmX5e54c34TD+eYPWSLAXApi85S6IxtlPjD/bEGDONtJWNqPbKGKJAMdbo167sT0SWnarctWcEkBi1LlUf8h9y+wMbUtFs7b+lrIrNxMCDhjGv4Bga5pyQgDJQpTyAxJ0x2Jo1s8asVxIyPSzUInfKpxdm+2R0G/Pyyc9FwHcfNa/L0ns6Hz7WbDZ+v15bsV8UYXlU3ccI+IY//K+eBPHSOPvhRUBrO/1PxBCqPfL9Jb9zNVvl9zBcysi0y/G6cc1/hF2bkHUZ0QASaQd0aM8X/ypc791ZhfHgIRMvyDzx7gRju5g/DOG1boCiwCUq+3L0/pzE6v+4h6pm04bd7qb7/Zseo1MPxvU4qgD418cepjuhZYAjAJ5NONT57rLjeH29FtuJpAg088ErfjK8uw2dvEg8Y12OXqUSQDs85p+rK9qJHby3njK2T7aGhX1Q0CJvAhw3vuD8S8vymb1FxKAo8XvZOGrISHTz0yxsZVm6o9g/AurubkEwLOyZ5zyiT52+bABMv3CTgofrbU6g30iup0pG0FbPqDPlHmBAJix9fOEnhDJx6PT0a7rBz6R6Rd8XjhtkGv8Q8i2U9hZwi4QADNKa1p4svBXGqPHtsa9rJ6ywn0JmX4sbRdUiGn8o5XG8KqPOVTQsJei2XMEwFxsbwcmxJOV+umOL6UxdyN40y/yqQbjX7wKOkcArHPaeCwnJGm7u9nc9Tk0zm4E20afGsgvm2v8Q+BWfqxtJJwRAPecljQSIEyTtRuB0chG50Hr8D4qCNsOqpSpxs4IgHk3O4X64iLTr6gp4a5d7kcl1JxyN7LySDojAM45Lfn4E6kHPr3+CZLqKWXd3YDHksgqnNhr5yH8DAGmHmH8K3DOJASQ1+9fYP/R9JIjgMi/YhWYEAArwabYfqL1kiIA41+xih3vADoDta1/v9iuoPXqIQDjX9E6nxCA/nrmonuK9kuHAIx/xatU4PxfvBKq2oPR6fC667DxqmJpO27hKOvPtn3Uqy4CL7rtps0lstVFzMPIBdf/76FtiKwwAri3IQ7lC1bATRx9RS9KgwCMf7GoUqiQ21g6g35UA4GRrB3b3glZDYTCjVJ7J2C4rqAlIAAEQiMAAgiNONoDAhEhAAKISBnoChAIjQAIIDTiaA8IRIQACCAiZaArQCA0AiCA0IijPSAQEQIggIiUga4AgdAIgABCI472gEBECIAAIlIGugIEQiMAAgiNONoDAhEhAAKISBnoChAIjQAIIDTiaA8IRIQACCAiZaArQCA0AiCA0IijPSAQEQIggIiUga4AgdAIgABCI472gEBECIAAIlIGugIEQiMAAgiNONoDAhEhAAKISBnoChAIjQAIIDTiaA8IRIQACCAiZaArQCA0AiCA0IijPSAQEQIggIiUga4AgdAIgABCI472gEBECIAAIlIGugIEQiMAAgiNONoDAhEhAAKISBmZ/94lAAAAPklEQVToChAIjQAIIDTiaA8IRIQACCAiZaArQCA0AiCA0IijPSAQEQIggIiUga4AgdAIgABCI472gEBECPw/K6JMvy5hfCEAAAAASUVORK5CYII=;" vertex="1" parent="HrEDQ9N7DH2wASdigxI--13">
          <mxGeometry x="290" y="90" width="110" height="110" as="geometry" />
        </mxCell>
        <mxCell id="HrEDQ9N7DH2wASdigxI--24" value="&lt;font style=&quot;font-size: 20px&quot; color=&quot;#000000&quot;&gt;Unicorn&lt;/font&gt;" style="text;html=1;strokeColor=none;fillColor=none;align=center;verticalAlign=middle;whiteSpace=wrap;rounded=0;labelBackgroundColor=#ffffff;fontColor=#FF0000;" vertex="1" parent="HrEDQ9N7DH2wASdigxI--13">
          <mxGeometry x="305" y="200" width="80" height="28.5" as="geometry" />
        </mxCell>
        <mxCell id="HrEDQ9N7DH2wASdigxI--17" value="" style="endArrow=classic;startArrow=classic;html=1;rounded=0;" edge="1" parent="HrEDQ9N7DH2wASdigxI--2" source="HrEDQ9N7DH2wASdigxI--13" target="HrEDQ9N7DH2wASdigxI--12">
          <mxGeometry width="50" height="50" relative="1" as="geometry">
            <mxPoint x="260" y="120" as="sourcePoint" />
            <mxPoint x="310" y="70" as="targetPoint" />
          </mxGeometry>
        </mxCell>
        <mxCell id="HrEDQ9N7DH2wASdigxI--18" value="" style="outlineConnect=0;dashed=0;verticalLabelPosition=bottom;verticalAlign=top;align=center;html=1;shape=mxgraph.aws3.ec2;fillColor=#F58534;gradientColor=none;labelBackgroundColor=#ffffff;" vertex="1" parent="HrEDQ9N7DH2wASdigxI--2">
          <mxGeometry x="613.5" y="80" width="76.5" height="93" as="geometry" />
        </mxCell>
        <mxCell id="HrEDQ9N7DH2wASdigxI--4" value="Users" style="sketch=0;outlineConnect=0;fontColor=#232F3E;gradientColor=none;strokeColor=#232F3E;fillColor=#ffffff;dashed=0;verticalLabelPosition=bottom;verticalAlign=top;align=center;html=1;fontSize=12;fontStyle=0;aspect=fixed;shape=mxgraph.aws4.resourceIcon;resIcon=mxgraph.aws4.users;labelBackgroundColor=#ffffff;" vertex="1" parent="1">
          <mxGeometry x="90" y="30" width="90" height="90" as="geometry" />
        </mxCell>
        <mxCell id="HrEDQ9N7DH2wASdigxI--7" value="" style="fontColor=#0066CC;verticalAlign=top;verticalLabelPosition=bottom;labelPosition=center;align=center;html=1;outlineConnect=0;fillColor=#CCCCCC;strokeColor=#6881B3;gradientColor=none;gradientDirection=north;strokeWidth=2;shape=mxgraph.networks.virtual_pc;labelBackgroundColor=#ffffff;" vertex="1" parent="1">
          <mxGeometry x="200" y="30" width="70" height="60" as="geometry" />
        </mxCell>
        <mxCell id="HrEDQ9N7DH2wASdigxI--9" value="" style="verticalLabelPosition=bottom;html=1;verticalAlign=top;align=center;strokeColor=none;fillColor=#00BEF2;shape=mxgraph.azure.mobile;pointerEvents=1;labelBackgroundColor=#ffffff;" vertex="1" parent="1">
          <mxGeometry x="217.5" y="100" width="35" height="50" as="geometry" />
        </mxCell>
        <mxCell id="HrEDQ9N7DH2wASdigxI--10" value="" style="endArrow=classic;startArrow=classic;html=1;rounded=0;" edge="1" parent="1">
          <mxGeometry width="50" height="50" relative="1" as="geometry">
            <mxPoint x="280" y="80" as="sourcePoint" />
            <mxPoint x="520" y="160" as="targetPoint" />
            <Array as="points">
              <mxPoint x="520" y="80" />
            </Array>
          </mxGeometry>
        </mxCell>
        <mxCell id="HrEDQ9N7DH2wASdigxI--26" value="&lt;font color=&quot;#000000&quot;&gt;&lt;span style=&quot;font-size: 20px&quot;&gt;HTTPS&lt;br&gt;&lt;/span&gt;&lt;/font&gt;" style="text;html=1;strokeColor=none;fillColor=none;align=center;verticalAlign=middle;whiteSpace=wrap;rounded=0;labelBackgroundColor=#ffffff;fontColor=#FF0000;" vertex="1" parent="1">
          <mxGeometry x="425.32" y="40" width="80" height="28.5" as="geometry" />
        </mxCell>
        <mxCell id="HrEDQ9N7DH2wASdigxI--27" value="" style="endArrow=classic;startArrow=classic;html=1;rounded=0;fontSize=20;fontColor=#000000;entryX=1.032;entryY=0.653;entryDx=0;entryDy=0;entryPerimeter=0;" edge="1" parent="1" target="HrEDQ9N7DH2wASdigxI--18">
          <mxGeometry width="50" height="50" relative="1" as="geometry">
            <mxPoint x="1090" y="361" as="sourcePoint" />
            <mxPoint x="800" y="500" as="targetPoint" />
          </mxGeometry>
        </mxCell>
        <mxCell id="HrEDQ9N7DH2wASdigxI--29" value="" style="rounded=0;whiteSpace=wrap;html=1;labelBackgroundColor=#ffffff;fontSize=20;fontColor=#000000;fillColor=none;" vertex="1" parent="1">
          <mxGeometry x="1100" y="300" width="300" height="120" as="geometry" />
        </mxCell>
        <mxCell id="HrEDQ9N7DH2wASdigxI--32" value="" style="sketch=0;html=1;dashed=0;whitespace=wrap;fillColor=#2875E2;strokeColor=#ffffff;points=[[0.005,0.63,0],[0.1,0.2,0],[0.9,0.2,0],[0.5,0,0],[0.995,0.63,0],[0.72,0.99,0],[0.5,1,0],[0.28,0.99,0]];shape=mxgraph.kubernetes.icon;prIcon=api;labelBackgroundColor=#ffffff;fontSize=20;fontColor=#000000;" vertex="1" parent="1">
          <mxGeometry x="1070" y="240" width="80" height="80" as="geometry" />
        </mxCell>
        <mxCell id="HrEDQ9N7DH2wASdigxI--33" value="&lt;font style=&quot;font-size: 40px&quot; color=&quot;#ff3399&quot;&gt;Annict API&lt;/font&gt;" style="text;html=1;strokeColor=none;fillColor=none;align=center;verticalAlign=middle;whiteSpace=wrap;rounded=0;labelBackgroundColor=#ffffff;fontColor=#FF0000;" vertex="1" parent="1">
          <mxGeometry x="1130" y="345.75" width="240" height="28.5" as="geometry" />
        </mxCell>
        <mxCell id="HrEDQ9N7DH2wASdigxI--34" value="" style="shape=image;html=1;verticalAlign=top;verticalLabelPosition=bottom;labelBackgroundColor=#ffffff;imageAspect=0;aspect=fixed;image=https://cdn0.iconfinder.com/data/icons/social-network-9/50/29-128.png;fontSize=40;fontColor=#FF3399;fillColor=none;" vertex="1" parent="1">
          <mxGeometry x="1079" y="500" width="90" height="90" as="geometry" />
        </mxCell>
        <mxCell id="HrEDQ9N7DH2wASdigxI--35" value="" style="endArrow=classic;startArrow=classic;html=1;rounded=0;fontSize=40;fontColor=#FF3399;exitX=1;exitY=0.75;exitDx=0;exitDy=0;" edge="1" parent="1" source="HrEDQ9N7DH2wASdigxI--13">
          <mxGeometry width="50" height="50" relative="1" as="geometry">
            <mxPoint x="960" y="510" as="sourcePoint" />
            <mxPoint x="1060" y="540" as="targetPoint" />
          </mxGeometry>
        </mxCell>
        <mxCell id="HrEDQ9N7DH2wASdigxI--36" value="" style="endArrow=classic;startArrow=classic;html=1;rounded=0;fontSize=40;fontColor=#FF3399;" edge="1" parent="1">
          <mxGeometry width="50" height="50" relative="1" as="geometry">
            <mxPoint x="1170" y="540" as="sourcePoint" />
            <mxPoint x="1360" y="540" as="targetPoint" />
          </mxGeometry>
        </mxCell>
        <mxCell id="HrEDQ9N7DH2wASdigxI--37" value="" style="fontColor=#0066CC;verticalAlign=top;verticalLabelPosition=bottom;labelPosition=center;align=center;html=1;outlineConnect=0;fillColor=#CCCCCC;strokeColor=#6881B3;gradientColor=none;gradientDirection=north;strokeWidth=2;shape=mxgraph.networks.pc;labelBackgroundColor=#ffffff;fontSize=40;" vertex="1" parent="1">
          <mxGeometry x="1380" y="490" width="120" height="90" as="geometry" />
        </mxCell>
        <mxCell id="HrEDQ9N7DH2wASdigxI--38" value="&lt;font color=&quot;#000000&quot;&gt;&lt;span style=&quot;font-size: 20px&quot;&gt;Dveloper&lt;/span&gt;&lt;/font&gt;" style="text;html=1;strokeColor=none;fillColor=none;align=center;verticalAlign=middle;whiteSpace=wrap;rounded=0;labelBackgroundColor=#ffffff;fontColor=#FF0000;" vertex="1" parent="1">
          <mxGeometry x="1410" y="590" width="80" height="28.5" as="geometry" />
        </mxCell>
        <mxCell id="HrEDQ9N7DH2wASdigxI--39" value="&lt;font color=&quot;#000000&quot;&gt;&lt;span style=&quot;font-size: 20px&quot;&gt;Github&lt;/span&gt;&lt;/font&gt;" style="text;html=1;strokeColor=none;fillColor=none;align=center;verticalAlign=middle;whiteSpace=wrap;rounded=0;labelBackgroundColor=#ffffff;fontColor=#FF0000;" vertex="1" parent="1">
          <mxGeometry x="1084" y="590" width="80" height="28.5" as="geometry" />
        </mxCell>
      </root>
    </mxGraphModel>
  </diagram>
</mxfile>
